<svg width="859" height="298" viewBox="0 0 859 298" fill="none" xmlns="http://www.w3.org/2000/svg">
<path d="M57.3218 66.1497H86.731C105.663 66.1497 121.156 49.7237 121.194 29.6337C119.373 40.3616 110.534 48.4999 99.9055 48.4999C87.958 48.4999 77.9624 38.2133 78.2729 25.5324C79.274 -15.3166 147.443 -4.89567 147.042 47.855C147.042 72.5528 128.518 92.6758 105.471 93.5913H86.731C74.5382 93.5913 63.466 100.725 57.3218 111.34C51.177 100.725 40.1054 93.5913 27.9127 93.5913H9.17295C-13.8746 92.6758 -32.3986 72.5528 -32.3986 47.855C-32.7988 -4.89499 35.369 -15.3166 36.3708 25.5324C36.6819 38.2126 26.6856 48.4999 14.7381 48.4999C4.10932 48.4999 -4.729 40.3609 -6.54984 29.6337C-6.51241 49.7237 8.97997 66.1497 27.9127 66.1497H57.3218Z" fill="#E6E6E6"/>
<path d="M57.3218 159.189H86.731C105.663 159.189 121.156 142.763 121.194 122.673C119.373 133.401 110.534 141.539 99.9055 141.539C87.958 141.539 77.9624 131.253 78.2729 118.572C79.274 77.723 147.443 88.1439 147.042 140.895C147.042 165.593 128.518 185.715 105.471 186.631H86.731C74.5382 186.631 63.466 193.765 57.3218 204.38C51.177 193.765 40.1054 186.631 27.9127 186.631H9.17295C-13.8746 185.715 -32.3986 165.593 -32.3986 140.895C-32.7988 88.1446 35.369 77.723 36.3708 118.572C36.6819 131.252 26.6856 141.539 14.7381 141.539C4.10932 141.539 -4.729 133.401 -6.54984 122.673C-6.51241 142.763 8.97997 159.189 27.9127 159.189H57.3218Z" fill="#E6E6E6"/>
<path d="M236.508 66.1497H207.098C188.167 66.1497 172.673 49.7237 172.636 29.6337C174.457 40.3616 183.296 48.4999 193.924 48.4999C205.872 48.4999 215.867 38.2133 215.557 25.5324C214.556 -15.3166 146.387 -4.89567 146.787 47.855C146.787 72.5528 165.311 92.6758 188.359 93.5913H207.098C219.291 93.5913 230.364 100.725 236.508 111.34C242.652 100.725 253.724 93.5913 265.917 93.5913H284.656C307.704 92.6758 326.228 72.5528 326.228 47.855C326.629 -4.89499 258.46 -15.3166 257.458 25.5324C257.148 38.2126 267.144 48.4999 279.091 48.4999C289.721 48.4999 298.558 40.3609 300.379 29.6337C300.342 49.7237 284.85 66.1497 265.917 66.1497H236.508Z" fill="#E6E6E6"/>
<path d="M415.954 66.1497H445.363C464.295 66.1497 479.788 49.7237 479.825 29.6337C478.004 40.3616 469.166 48.4999 458.537 48.4999C446.59 48.4999 436.594 38.2133 436.904 25.5324C437.905 -15.3166 506.074 -4.89567 505.674 47.855C505.674 72.5528 487.15 92.6758 464.102 93.5913H445.363C433.17 93.5913 422.098 100.725 415.954 111.34C409.809 100.725 398.737 93.5913 386.544 93.5913H367.805C344.757 92.6758 326.233 72.5528 326.233 47.855C325.833 -4.89499 394.001 -15.3166 395.003 25.5324C395.314 38.2126 385.318 48.4999 373.37 48.4999C362.741 48.4999 353.903 40.3609 352.082 29.6337C352.119 49.7237 367.612 66.1497 386.544 66.1497H415.954Z" fill="#E6E6E6"/>
<path d="M595.108 66.1497H624.517C643.449 66.1497 658.942 49.7237 658.979 29.6337C657.158 40.3616 648.32 48.4999 637.691 48.4999C625.744 48.4999 615.748 38.2133 616.058 25.5324C617.059 -15.3166 685.228 -4.89567 684.828 47.855C684.828 72.5528 666.304 92.6758 643.256 93.5913H624.517C612.324 93.5913 601.251 100.725 595.108 111.34C588.963 100.725 577.891 93.5913 565.698 93.5913H546.959C523.911 92.6758 505.387 72.5528 505.387 47.855C504.987 -4.89499 573.155 -15.3166 574.157 25.5324C574.467 38.2126 564.471 48.4999 552.524 48.4999C541.894 48.4999 533.057 40.3609 531.236 29.6337C531.273 49.7237 546.766 66.1497 565.698 66.1497H595.108Z" fill="#E6E6E6"/>
<path d="M236.508 159.189H207.098C188.167 159.189 172.673 142.763 172.636 122.673C174.457 133.401 183.296 141.539 193.924 141.539C205.872 141.539 215.867 131.253 215.557 118.572C214.556 77.723 146.387 88.1439 146.787 140.895C146.787 165.593 165.311 185.715 188.359 186.631H207.098C219.291 186.631 230.364 193.765 236.508 204.38C242.652 193.765 253.724 186.631 265.917 186.631H284.656C307.704 185.715 326.228 165.593 326.228 140.895C326.629 88.1446 258.46 77.723 257.458 118.572C257.148 131.252 267.144 141.539 279.091 141.539C289.721 141.539 298.558 133.401 300.379 122.673C300.342 142.763 284.85 159.189 265.917 159.189H236.508Z" fill="#E6E6E6"/>
<path d="M415.954 159.189H445.363C464.295 159.189 479.788 142.763 479.825 122.673C478.004 133.401 469.166 141.539 458.537 141.539C446.59 141.539 436.594 131.253 436.904 118.572C437.905 77.723 506.074 88.1439 505.674 140.895C505.674 165.593 487.15 185.715 464.102 186.631H445.363C433.17 186.631 422.098 193.765 415.954 204.38C409.809 193.765 398.737 186.631 386.544 186.631H367.805C344.757 185.715 326.233 165.593 326.233 140.895C325.833 88.1446 394.001 77.723 395.003 118.572C395.314 131.252 385.318 141.539 373.37 141.539C362.741 141.539 353.903 133.401 352.082 122.673C352.119 142.763 367.612 159.189 386.544 159.189H415.954Z" fill="#E6E6E6"/>
<path d="M595.108 159.189H624.517C643.449 159.189 658.942 142.763 658.979 122.673C657.158 133.401 648.32 141.539 637.691 141.539C625.744 141.539 615.748 131.253 616.058 118.572C617.059 77.723 685.228 88.1439 684.828 140.895C684.828 165.593 666.304 185.715 643.256 186.631H624.517C612.324 186.631 601.251 193.765 595.108 204.38C588.963 193.765 577.891 186.631 565.698 186.631H546.959C523.911 185.715 505.387 165.593 505.387 140.895C504.987 88.1446 573.155 77.723 574.157 118.572C574.467 131.252 564.471 141.539 552.524 141.539C541.894 141.539 533.057 133.401 531.236 122.673C531.273 142.763 546.766 159.189 565.698 159.189H595.108Z" fill="#E6E6E6"/>
<path d="M769.278 66.1497H739.869C720.937 66.1497 705.444 49.7237 705.407 29.6337C707.228 40.3616 716.066 48.4999 726.695 48.4999C738.642 48.4999 748.638 38.2133 748.327 25.5324C747.326 -15.3166 679.158 -4.89567 679.557 47.855C679.557 72.5528 698.082 92.6758 721.13 93.5913H739.869C752.062 93.5913 763.134 100.725 769.278 111.34C775.423 100.725 786.495 93.5913 798.688 93.5913H817.427C840.475 92.6758 858.999 72.5528 858.999 47.855C859.399 -4.89499 791.231 -15.3166 790.23 25.5324C789.918 38.2126 799.915 48.4999 811.862 48.4999C822.491 48.4999 831.329 40.3609 833.15 29.6337C833.113 49.7237 817.62 66.1497 798.688 66.1497H769.278Z" fill="#E6E6E6"/>
<path d="M769.278 159.189H739.868C720.936 159.189 705.443 142.763 705.406 122.673C707.227 133.401 716.065 141.539 726.694 141.539C738.641 141.539 748.637 131.253 748.326 118.572C747.325 77.723 679.157 88.1439 679.556 140.895C679.556 165.593 698.081 185.715 721.129 186.631H739.868C752.061 186.631 763.133 193.765 769.278 204.38C775.422 193.765 786.494 186.631 798.687 186.631H817.426C840.474 185.715 858.998 165.593 858.998 140.895C859.398 88.1446 791.23 77.723 790.229 118.572C789.917 131.252 799.914 141.539 811.861 141.539C822.49 141.539 831.328 133.401 833.149 122.673C833.112 142.763 817.619 159.189 798.687 159.189H769.278Z" fill="#E6E6E6"/>
<path d="M57.3218 252.073H86.731C105.663 252.073 121.156 235.647 121.194 215.557C119.373 226.284 110.534 234.423 99.9055 234.423C87.958 234.423 77.9624 224.136 78.2729 211.455C79.274 170.606 147.443 181.027 147.042 233.778C147.042 258.476 128.518 278.599 105.471 279.514H86.731C74.5382 279.514 63.466 286.648 57.3218 297.263C51.177 286.648 40.1054 279.514 27.9127 279.514H9.17295C-13.8746 278.599 -32.3986 258.476 -32.3986 233.778C-32.7988 181.028 35.369 170.606 36.3708 211.455C36.6819 224.135 26.6856 234.423 14.7381 234.423C4.10932 234.423 -4.729 226.284 -6.54984 215.557C-6.51241 235.647 8.97997 252.073 27.9127 252.073H57.3218Z" fill="#E6E6E6"/>
<path d="M236.508 252.073H207.098C188.167 252.073 172.673 235.647 172.636 215.557C174.457 226.284 183.296 234.423 193.924 234.423C205.872 234.423 215.867 224.136 215.557 211.455C214.556 170.606 146.387 181.027 146.787 233.778C146.787 258.476 165.311 278.599 188.359 279.514H207.098C219.291 279.514 230.364 286.648 236.508 297.263C242.652 286.648 253.724 279.514 265.917 279.514H284.656C307.704 278.599 326.228 258.476 326.228 233.778C326.629 181.028 258.46 170.606 257.458 211.455C257.148 224.135 267.144 234.423 279.091 234.423C289.721 234.423 298.558 226.284 300.379 215.557C300.342 235.647 284.85 252.073 265.917 252.073H236.508Z" fill="#E6E6E6"/>
<path d="M415.954 252.073H445.363C464.295 252.073 479.788 235.647 479.825 215.557C478.004 226.284 469.166 234.423 458.537 234.423C446.59 234.423 436.594 224.136 436.904 211.455C437.905 170.606 506.074 181.027 505.674 233.778C505.674 258.476 487.15 278.599 464.102 279.514H445.363C433.17 279.514 422.098 286.648 415.954 297.263C409.809 286.648 398.737 279.514 386.544 279.514H367.805C344.757 278.599 326.233 258.476 326.233 233.778C325.833 181.028 394.001 170.606 395.003 211.455C395.314 224.135 385.318 234.423 373.37 234.423C362.741 234.423 353.903 226.284 352.082 215.557C352.119 235.647 367.612 252.073 386.544 252.073H415.954Z" fill="#E6E6E6"/>
<path d="M595.108 252.073H624.517C643.449 252.073 658.942 235.647 658.979 215.557C657.158 226.284 648.32 234.423 637.691 234.423C625.744 234.423 615.748 224.136 616.058 211.455C617.059 170.606 685.228 181.027 684.828 233.778C684.828 258.476 666.304 278.599 643.256 279.514H624.517C612.324 279.514 601.251 286.648 595.108 297.263C588.963 286.648 577.891 279.514 565.698 279.514H546.959C523.911 278.599 505.387 258.476 505.387 233.778C504.987 181.028 573.155 170.606 574.157 211.455C574.467 224.135 564.471 234.423 552.524 234.423C541.894 234.423 533.057 226.284 531.236 215.557C531.273 235.647 546.766 252.073 565.698 252.073H595.108Z" fill="#E6E6E6"/>
<path d="M769.278 252.073H739.868C720.936 252.073 705.443 235.647 705.406 215.557C707.227 226.284 716.065 234.423 726.694 234.423C738.641 234.423 748.637 224.136 748.326 211.455C747.325 170.606 679.157 181.027 679.556 233.778C679.556 258.476 698.081 278.599 721.129 279.514H739.868C752.061 279.514 763.133 286.648 769.278 297.263C775.422 286.648 786.494 279.514 798.687 279.514H817.426C840.474 278.599 858.998 258.476 858.998 233.778C859.398 181.028 791.23 170.606 790.229 211.455C789.917 224.135 799.914 234.423 811.861 234.423C822.49 234.423 831.328 226.284 833.149 215.557C833.112 235.647 817.619 252.073 798.687 252.073H769.278Z" fill="#E6E6E6"/>
</svg>
