<svg width="1209" height="790" viewBox="0 0 1209 790" fill="none" xmlns="http://www.w3.org/2000/svg">
<path d="M630.852 787.378C630.852 787.378 623.654 782.858 619.543 784.496C615.432 786.134 608.518 783.472 606.596 780.18C604.674 776.888 599.004 780.385 596.736 780.18C594.468 779.975 596.941 771.139 596.736 764.429C596.531 757.719 598.311 755.183 589.931 752.301C581.552 749.418 572.7 748.82 563.659 746.756C554.618 744.693 495.662 698.685 486.621 690.872C477.58 683.06 473.264 679.374 470.87 671.971C468.476 664.568 469.626 663.765 465.326 657.591C461.026 651.416 457.45 650.613 457.45 643.84C457.45 637.067 451.15 629.664 445.936 630.688C440.723 631.712 434.029 636.437 430.186 634.389C426.342 632.342 415.191 631.507 411.284 633.555C407.378 635.602 400.605 631.98 400.4 617.331C400.196 602.683 413.552 590.413 397.927 590.208C382.303 590.003 376.774 587.546 369.166 581.167C361.559 574.788 360.535 570.693 353.762 577.891C346.989 585.089 343.492 598.367 334.451 596.367C325.41 594.366 310.006 595.957 313.077 610.763C316.149 625.569 319.047 630.688 309.596 630.688H285.97C285.97 630.688 282.064 631.097 282.064 624.309V486.598C282.064 486.598 281.45 479.747 289.388 477.841C297.326 475.935 355.951 456.199 355.951 456.199C355.951 456.199 365.26 452.907 371.56 460.31C377.861 467.713 416.498 495.923 421.963 500.57C427.429 505.216 447.165 522.211 450.189 528.512C451.969 532.251 454.078 535.824 456.49 539.191C456.49 539.191 459.514 544.956 466.917 542.483C474.32 540.01 498.828 535.3 507.648 535.915C516.469 536.529 533.543 539.6 539.15 537.49C544.758 535.379 551.279 528.653 556.209 533.993C561.139 539.333 570.18 565.022 574.496 566.046C578.811 567.07 584.151 561.935 582.497 571.181C580.843 580.427 577.567 596.241 578.181 599.328C578.795 602.415 580.245 605.628 587.222 606.731C594.2 607.833 597.492 607.14 598.531 617.41C599.571 627.679 594.011 638.563 605.509 638.563C617.007 638.563 642.287 633.019 642.287 640.217C642.287 647.415 636.129 648.644 645.438 654.188C654.746 659.733 658.574 661.985 655.912 653.165C653.25 644.344 659.204 643.919 664.134 637.335C669.064 630.751 685.492 617.615 693.1 614.118C693.1 614.118 699.4 598.572 708.646 600.761C717.892 602.951 731.658 587.625 731.658 593.642C731.658 599.659 700.424 612.826 703.716 618.292C707.008 623.758 719.593 621.033 719.593 625.963C719.593 630.893 717.404 638.563 728.366 636.988C739.329 635.413 737.675 637.54 743.708 628.766C749.74 619.993 753.016 622.749 754.119 628.766C755.222 634.783 759.049 639.178 764.515 640.28C769.98 641.383 787.527 649.038 780.407 657.26C773.288 665.482 759.049 660.552 754.119 668.758C749.189 676.964 746.984 678.082 736.037 672.05C725.09 666.017 715.765 665.482 711.387 667.671C707.008 669.86 708.095 661.638 712.962 656.645C717.829 651.652 717.341 640.768 710.221 645.147C703.102 649.526 671.868 656.094 672.419 662.127C672.97 668.159 664.197 682.95 657.629 686.241C651.061 689.533 655.439 691.171 647.217 694.448C638.995 697.724 619.275 695.55 624.205 705.962C629.135 716.373 642.839 721.839 642.287 731.699C641.736 741.559 658.18 739.921 648.856 751.97C639.531 764.02 632.979 777.723 634.065 781.015C635.152 784.307 638.728 794.765 630.852 787.378Z" fill="#343331"/>
<path d="M275.086 632.61V482.976C275.086 482.976 273.826 473.935 281.985 472.297C290.144 470.659 354.785 446.828 357.81 446.828C360.834 446.828 371.497 448.733 376.979 455.034C382.46 461.334 443.778 508.729 449.543 513.659C455.308 518.589 456.694 533.93 463.262 534.481C469.83 535.033 487.645 528.449 499.978 528.732C512.31 529.016 533.054 533.237 541.072 530.229C549.089 527.22 558.398 525.503 561.753 530.37C565.108 535.237 572.574 555.572 575.582 556.942C578.59 558.313 591.128 562.14 589.931 571.118C588.734 580.096 582.15 597.139 587.631 599.612C593.113 602.084 604.611 602.762 605.446 610.432C606.28 618.103 605.02 625.774 605.855 627.144C606.69 628.514 606.265 631.381 612.565 631.381C618.865 631.381 633.797 629.333 640.366 631.523C646.934 633.712 648.446 639.871 650.367 640.422C652.289 640.973 654.337 639.871 660.354 631.932C666.37 623.994 681.995 613.441 685.555 609.881C689.115 606.321 698.297 595.5 704.33 595.233C710.363 594.965 717.608 592.618 720.9 589.877C724.192 587.137 728.429 568.11 744.054 570.567C759.679 573.024 790.062 588.381 796.363 588.098C802.663 587.814 803.766 574.41 803.766 567.826C803.766 561.242 822.115 550.579 828.148 556.06C834.181 561.542 850.877 576.048 861.225 574.961C871.573 573.875 951.352 566.188 961.48 571.937C971.608 577.686 975.656 587.279 984.76 588.932C993.864 590.586 1011.88 602.069 1006.95 588.932C1002.02 575.796 1005.38 566.739 1012.7 561.809C1020.03 556.879 1014.28 545.365 1012.7 538.797C1011.13 532.229 1006.54 511.784 1006.24 503.247C1005.94 494.71 1011.58 490.521 1004.67 490.001C997.754 489.481 985.972 483.937 1000.35 481.984C1012.14 480.317 1023.61 476.942 1034.42 471.966C1044.01 467.855 1047.31 468.391 1051.75 472.234C1056.19 476.077 1065.17 477.164 1069.07 474.974C1072.98 472.785 1073.45 468.942 1069.07 465.114C1064.7 461.287 1061.94 456.892 1064.68 450.041C1067.42 443.189 1079.2 407.041 1081.12 399.921C1083.05 392.802 1080.84 384.848 1089.61 389.778C1098.39 394.708 1113.79 403.197 1123.04 400.945C1132.28 398.693 1137.42 399.086 1136.8 402.788C1136.19 406.489 1139.26 408.962 1143.37 403.607C1147.48 398.252 1149.94 395.605 1155.29 395.196C1160.65 394.786 1164.95 385.745 1163.5 377.728C1162.05 369.711 1160.63 341.154 1165.77 337.658C1170.9 334.161 1189.4 334.177 1192.88 325.545C1196.36 316.914 1192.88 308.692 1199.05 305.62C1205.23 302.549 1211.37 301.1 1206.23 296.579C1201.1 292.059 1194.74 287.129 1193.63 281.159C1192.53 275.19 1190.96 272.543 1185.21 277.474C1179.46 282.404 1182.53 287.334 1171.64 284.656C1160.76 281.978 1153.56 284.861 1149.25 281.159C1144.93 277.458 1142.27 265.755 1142.27 262.258C1142.27 258.761 1137.54 254.052 1130.14 253.642C1122.74 253.233 1123.57 252.193 1121.71 243.578C1119.86 234.962 1111.03 223.637 1104.39 220.77C1097.74 217.904 1091.03 215.431 1083.42 218.502C1075.82 221.574 1072.13 230.221 1062.95 228.157C1053.76 226.094 1044.46 227.338 1039.94 226.724C1035.41 226.11 1035.21 223.227 1035.21 219.116C1035.21 215.005 1030.89 219.353 1028.03 217.084C1025.16 214.816 1026.99 201.05 1018.17 203.917C1009.35 206.783 1007.14 207.067 1007.68 213.777C1008.21 220.487 1000.29 226.519 995.769 225.291C991.249 224.062 959.401 148.725 944.611 126.8C933.087 109.818 919.465 94.3601 904.068 80.7917C893.656 71.4672 892.428 70.5851 891.703 69.1518C890.979 67.7184 890.679 62.0639 895.405 61.9536C900.13 61.8433 902.807 58.9766 902.807 56.7085C902.807 54.4404 902.398 51.4793 900.744 50.6602C899.09 49.8412 896.539 52.9126 894.27 53.3221C892.002 53.7316 883.702 51.747 882.253 54.5664C880.804 57.3858 871.227 64.1115 865.509 65.1353C859.792 66.1591 858.626 69.8606 857.634 72.8375C857.19 74.601 856.246 76.1988 854.916 77.4393C853.586 78.6798 851.927 79.5102 850.136 79.831C845.301 80.8548 838.008 79.5159 834.826 84.7609C831.645 90.006 830.826 99.4566 826.101 95.0305C821.375 90.6045 820.036 87.6433 812.854 89.691C805.672 91.7386 802.679 100.717 798.473 98.3225C794.268 95.9284 791.889 88.1474 796.111 83.6269C800.332 79.1064 804.837 82.1936 807.703 77.3265C810.57 72.4595 808.633 65.0093 804.112 69.5298C799.592 74.0503 791.165 76.0979 789.936 72.0972C789.369 69.9632 788.072 68.0954 786.271 66.8179C784.469 65.5404 782.278 64.9339 780.076 65.1038C774.737 65.3085 770.83 67.3719 767.964 63.5287C765.097 59.6855 755.111 58.1891 750.795 60.662C746.479 63.1349 734.572 65.5921 731.894 61.3708C729.216 57.1496 729.532 57.9844 732.414 53.7789C735.297 49.5734 733.028 46.0766 733.753 41.8554C734.477 37.6341 736.525 37.1302 732.619 33.2397C728.713 29.3492 727.893 29.0184 728.413 22.5448C728.933 16.0712 728.508 6.93562 721.42 5.21877C714.332 3.50192 709.717 8.36897 704.787 10.3536C699.857 12.3382 696.911 8.58949 693.068 4.84077C689.225 1.09204 668.213 -2.1684 662.149 1.83233C656.085 5.83307 649.926 7.69168 647.768 14.4331C645.61 21.1745 637.389 22.7495 632.254 23.2693C627.119 23.7891 621.37 27.5851 616.235 27.3803C611.1 27.1755 595.759 38.5792 588.198 37.8547C580.638 37.1301 565.076 42.1704 560.666 41.9657C556.256 41.7609 557.783 47.7148 554.901 50.2822C552.019 52.8496 542.678 49.2584 536.724 51.621C530.771 53.9836 517.099 60.347 512.169 59.4965C507.239 58.6459 497.457 59.0082 494.843 61.6859C492.228 64.3635 488.968 66.6159 485.392 66.4111C481.817 66.2064 478.682 70.2543 476.414 71.2781C474.146 72.3019 473.264 69.0101 467.515 68.6005C461.766 68.191 460.112 69.2148 455.938 70.2544C451.764 71.2939 448.677 72.9793 445.527 69.5613C442.376 66.1434 437.525 66.0016 436.076 72.3649C434.627 78.7283 438.265 79.2797 434.501 82.5716C430.737 85.8635 425.586 89.3602 432.438 90.5888C439.289 91.8173 453.119 93.2507 446.409 95.314C439.699 97.3774 433.682 103.473 437.777 106.198C441.872 108.923 458.253 107.096 459.356 112.372C460.458 117.649 466.003 123.398 458.253 122.784C450.504 122.169 437.163 118.058 432.784 122.028C428.405 125.997 418.262 128.596 423.538 138.739C428.815 148.883 434.769 152.017 428.815 156.743C422.861 161.468 401.014 165.232 401.14 170.918C401.266 176.605 415.521 176.935 415.868 180.92C416.214 184.905 427.854 185.567 428.61 188.386C429.366 191.206 429.697 195.222 436.832 196.734C443.967 198.246 448.267 199.884 447.858 206.39C447.448 212.895 451.827 225.086 439.982 229.055C428.138 233.024 414.639 236.175 410.607 232.694C406.575 229.213 406.212 222.487 402.999 224.818C399.786 227.149 401.156 239.136 394.777 239.467C388.398 239.797 385.122 238.506 383.956 234.536C382.791 230.567 371.356 232.347 367.733 230.772C364.11 229.197 360.267 226.047 360.535 221.18C360.802 216.313 358.424 209.209 352.454 209.414C346.485 209.619 342.122 215.021 339.113 212.485C336.105 209.949 333.837 209.335 333.837 213.934C333.837 218.534 332.262 223.511 329.442 222.424C326.623 221.337 321.913 212.485 317.188 211.95C312.463 211.414 303.501 211.524 299.594 214.407C295.688 217.289 286.852 229.748 281.512 233.308C276.173 236.868 267.478 235.497 262.753 230.63C258.028 225.763 250.152 214.879 243.71 215.431C237.268 215.982 236.591 217.006 240.828 222.014C245.065 227.023 245.553 228.236 244.387 232.426C243.222 236.616 235.22 242.207 235.835 234.741C236.449 227.275 236.858 223.716 233.708 220.707C230.558 217.699 228.636 208.863 220.43 207.902C212.224 206.941 212.759 203.649 212.555 200.231C212.35 196.813 206.396 189.678 196.126 191.332C185.857 192.986 179.556 196.404 178.044 191.332C176.532 186.26 176.674 180.227 169.145 182.558C161.616 184.89 158.324 184.134 157.222 188.859C156.119 193.584 152.843 196.12 148.464 193.253C144.085 190.387 147.645 186.26 141.754 185.583C135.863 184.905 130.382 175.581 122.57 186.953C114.757 198.325 106.96 208.579 100.518 210.784C94.0762 212.989 84.358 207.083 85.051 216.943C85.7441 226.803 75.3168 233.371 69.1582 234.269C62.9996 235.167 59.4399 238.789 62.7161 245.09C65.9923 251.39 73.7417 259.47 67.7879 264.952C61.834 270.433 51.6274 274.402 46.6974 261.534C41.7673 248.665 38.4754 243.452 33.5454 243.593C28.6153 243.735 23.827 245.168 23.6853 253.044C23.5435 260.919 22.1102 263.03 17.3849 265.645C12.6596 268.259 6.56414 279.332 9.03703 287.964C11.5099 296.595 22.5985 292.894 14.6443 305.085C6.69005 317.276 -5.48532 330.145 2.73666 334.807C10.9586 339.469 18.4875 334.397 19.0231 343.297C19.5586 352.196 17.1172 369.317 23.7483 366.718C30.3795 364.119 37.9241 360.418 45.5318 364.938C53.1395 369.459 64.559 389.037 67.2997 395.479C70.0404 401.922 75.5217 408.49 67.7092 409.451C59.8968 410.411 57.3136 413.971 62.984 417.94C62.984 417.94 88.3272 431.502 101.747 419.72C115.167 407.938 135.438 392.329 147.22 398.078C159.002 403.827 158.45 414.522 169.681 405.198C180.911 395.873 193.78 395.07 196.804 411.782C199.828 428.493 190.771 444.37 195.229 453.144C199.686 461.917 207.562 472.045 192.488 469.036C177.414 466.028 150.858 456.971 141.55 473.966C132.241 490.962 158.261 501.625 146.747 503.279C135.233 504.933 124.554 494.773 117.718 496.695C110.883 498.617 106.693 504.917 116.616 510.666C126.539 516.415 143.739 536.687 144.007 547.098C144.274 557.509 141.266 559.982 150.858 560.801C160.451 561.62 151.677 568.472 161.27 570.378C170.862 572.284 184.896 559.699 184.282 573.118C183.668 586.538 174.422 596.95 176.879 603.801C179.336 610.653 171.949 617.977 178.8 614.48C185.652 610.984 204.553 594.209 218.524 594.004C232.495 593.799 237.142 591.815 245.632 603.596C254.121 615.378 259.807 628.247 264.533 631.255C269.258 634.264 275.086 638.154 275.086 632.61Z" fill="#343331"/>

</svg>
