<svg width="42" height="41" viewBox="0 0 42 41" fill="none" xmlns="http://www.w3.org/2000/svg">
<path d="M20.9166 9.15358C23.1682 9.15358 24.9934 7.32834 24.9934 5.07679C24.9934 2.82524 23.1682 1 20.9166 1C18.6651 1 16.8398 2.82524 16.8398 5.07679C16.8398 7.32834 18.6651 9.15358 20.9166 9.15358Z" stroke="white" stroke-width="2" stroke-miterlimit="22.9256"/>
<path fill-rule="evenodd" clip-rule="evenodd" d="M15.4365 21.3672H26.514V16.5051C26.514 13.8318 24.3253 11.6431 21.652 11.6431H20.3153C17.642 11.6431 15.4532 13.8318 15.4532 16.5051C15.4532 18.4039 15.4532 19.4685 15.4532 21.3672H15.4365Z" stroke="white" stroke-width="2" stroke-miterlimit="22.9256" stroke-linejoin="round"/>
<path d="M5.84537 19.6966C5.84537 18.8444 5.84537 17.9923 5.84537 16.7392C5.84537 15.4861 5.84537 13.832 5.84537 12.7961C5.84537 11.7602 5.84537 11.3091 5.44437 10.8078C5.04338 10.2899 4.22468 9.70508 3.42268 9.70508C2.62069 9.70508 1.80199 10.2899 1.401 10.8078C1 11.3258 1 11.7769 1 12.5288C1 13.2806 1 14.3499 1 16.0542C1 17.7584 1 20.0976 1 21.7015C1 23.3055 1 24.1911 1.06683 24.8761C1.13367 25.5611 1.28404 26.0624 1.50125 26.6137C1.71845 27.1818 2.0192 27.8 2.40349 28.4516C2.78777 29.1033 3.28902 29.7716 4.00747 30.4232C4.74263 31.0748 5.7117 31.693 6.84786 32.3446C7.98401 32.9963 9.28725 33.6646 9.98899 34.0155C10.674 34.3663 10.7576 34.4165 10.791 34.4833C10.8244 34.5501 10.8244 34.6337 10.8244 35.3855C10.8244 36.1207 10.8244 37.5242 10.8244 38.2593C10.8244 38.9945 10.8244 39.0947 10.8745 39.1282C10.9247 39.1783 11.0082 39.1783 12.3783 39.1783C13.7483 39.1783 16.3882 39.1783 17.7583 39.1783C19.1284 39.1783 19.2119 39.1783 19.262 39.1282C19.3122 39.078 19.3122 38.9611 19.3122 38.2092C19.3122 37.4573 19.3122 36.0539 19.3122 34.2828C19.3122 32.5117 19.3122 30.3731 19.3122 29.1701C19.3122 27.9671 19.2954 27.6831 19.1618 27.3155C19.0281 26.9479 18.7942 26.4801 18.4433 26.0791C18.1092 25.6781 17.658 25.3439 17.2403 25.0933C16.8226 24.8427 16.4049 24.6589 15.77 24.5252C15.1351 24.3748 14.2496 24.2579 13.4977 24.0741C12.7291 23.8736 12.0775 23.6063 11.4593 23.1719C10.8244 22.7374 10.2229 22.136 9.63812 21.5512C9.07004 20.9664 8.53538 20.3983 8.03414 20.0808C7.5496 19.7467 7.09848 19.6631 6.61394 19.6966C6.12941 19.73 5.61145 19.9138 5.21046 20.2312C4.79275 20.5654 4.4753 21.0499 4.34163 21.5846C4.20797 22.1025 4.25809 22.6706 4.52542 23.2053C4.80946 23.7399 5.32742 24.2746 6.12941 25.0432C6.91469 25.8118 7.98401 26.831 9.03663 27.8501" stroke="white" stroke-width="2" stroke-miterlimit="22.9256" stroke-linecap="round"/>
<path d="M36.1553 19.6966C36.1553 18.8444 36.1553 17.9923 36.1553 16.7392C36.1553 15.4861 36.1553 13.832 36.1553 12.7961C36.1553 11.7602 36.1553 11.3091 36.5563 10.8078C36.9572 10.2899 37.776 9.70508 38.5779 9.70508C39.3799 9.70508 40.1986 10.2899 40.5996 10.8078C41.0006 11.3258 41.0006 11.7769 41.0006 12.5288C41.0006 13.2806 41.0006 14.3499 41.0006 16.0542C41.0006 17.7584 41.0006 20.0976 41.0006 21.7015C41.0006 23.3055 41.0006 24.1911 40.9338 24.8761C40.867 25.5611 40.7166 26.0624 40.4994 26.6137C40.2822 27.1818 39.9814 27.8 39.5971 28.4516C39.2129 29.1033 38.7116 29.7716 37.9932 30.4232C37.258 31.0748 36.2889 31.693 35.1528 32.3446C34.0166 32.9963 32.7134 33.6646 32.0116 34.0155C31.3266 34.3663 31.2431 34.4165 31.2096 34.4833C31.1762 34.5501 31.1762 34.6337 31.1762 35.3855C31.1762 36.1207 31.1762 37.5242 31.1762 38.2593C31.1762 38.9945 31.1762 39.0947 31.1261 39.1282C31.076 39.1783 30.9924 39.1783 29.6224 39.1783C28.2523 39.1783 25.6124 39.1783 24.2423 39.1783C22.8723 39.1783 22.7887 39.1783 22.7386 39.1282C22.6885 39.078 22.6885 38.9611 22.6885 38.2092C22.6885 37.4573 22.6885 36.0539 22.6885 34.2828C22.6885 32.5117 22.6885 30.3731 22.6885 29.1701C22.6885 27.9671 22.7052 27.6831 22.8389 27.3155C22.9725 26.9479 23.2064 26.4801 23.5573 26.0791C23.8915 25.6781 24.3426 25.3439 24.7603 25.0933C25.178 24.8427 25.5957 24.6589 26.2306 24.5252C26.8655 24.3748 27.7511 24.2579 28.5029 24.0741C29.2715 23.8736 29.9231 23.6063 30.5413 23.1719C31.1762 22.7374 31.7777 22.136 32.3625 21.5512C32.9306 20.9664 33.4652 20.3983 33.9665 20.0808C34.451 19.7467 34.9021 19.6631 35.3867 19.6966C35.8712 19.73 36.3892 19.9138 36.7902 20.2312C37.2079 20.5654 37.5253 21.0499 37.659 21.5846C37.7927 22.1025 37.7425 22.6706 37.4752 23.2053C37.1912 23.7399 36.6732 24.2746 35.8712 25.0432C35.0859 25.8118 34.0166 26.831 32.964 27.8501" stroke="white" stroke-width="2" stroke-miterlimit="22.9256" stroke-linecap="round"/>
</svg>
