<svg width="42" height="47" viewBox="0 0 42 47" fill="none" xmlns="http://www.w3.org/2000/svg">
<path d="M40.6124 21.7544H1.38757C1.17352 21.7544 1 21.9279 1 22.142V45.5089C1 45.723 1.17352 45.8965 1.38757 45.8965H40.6124C40.8265 45.8965 41 45.723 41 45.5089V22.142C41 21.9279 40.8265 21.7544 40.6124 21.7544Z" stroke="white" stroke-width="2" stroke-miterlimit="22.9256"/>
<path fill-rule="evenodd" clip-rule="evenodd" d="M8.65482 21.7544H33.346V17.7173C33.346 17.475 33.1522 17.2812 32.91 17.2812H9.07468C8.83245 17.2812 8.63867 17.475 8.63867 17.7173V21.7544H8.65482Z" stroke="white" stroke-width="2" stroke-miterlimit="22.9256"/>
<path d="M21.0088 17.2972C21.0088 12.1135 21.0088 6.92982 21.0088 1.72998" stroke="white" stroke-width="2" stroke-miterlimit="22.9256" stroke-linecap="round" stroke-linejoin="round"/>
<path fill-rule="evenodd" clip-rule="evenodd" d="M31.9091 9.73982C31.9091 7.09145 31.9091 4.45924 31.9091 1.81087C31.1016 1.4556 30.2781 1.10033 29.4383 1.01959C28.5825 0.938847 27.7104 1.11648 26.8223 1.39101C25.9503 1.66553 25.0621 2.0208 24.3838 2.24688C23.6895 2.47296 23.1888 2.56985 22.6721 2.53756C22.1392 2.52141 21.574 2.37607 21.0088 2.23073C21.0088 4.94369 21.0088 7.6405 21.0088 10.3535C21.6709 10.4342 22.3491 10.4988 23.1081 10.4342C23.8671 10.3535 24.723 10.1274 25.7565 9.80441C26.79 9.48144 28.0011 9.04543 28.8731 8.90009C29.7452 8.75475 30.2942 8.88394 30.7464 9.06158C31.1985 9.25536 31.5538 9.49759 31.9091 9.73982Z" stroke="white" stroke-width="2" stroke-miterlimit="22.9256" stroke-linecap="round" stroke-linejoin="round"/>
<path d="M1 28.1006C14.3387 28.1006 27.6613 28.1006 41 28.1006" stroke="white" stroke-width="2" stroke-miterlimit="22.9256"/>
<path d="M8.6543 19.1865C8.6543 22.1579 8.6543 25.1292 8.6543 28.1005" stroke="white" stroke-width="2" stroke-miterlimit="22.9256"/>
<path d="M16.8906 21.7544C16.8906 23.8699 16.8906 25.9853 16.8906 28.0846" stroke="white" stroke-width="2" stroke-miterlimit="22.9256"/>
<path d="M25.126 21.7544C25.126 23.8699 25.126 25.9853 25.126 28.0846" stroke="white" stroke-width="2" stroke-miterlimit="22.9256"/>
<path d="M33.3457 19.1865C33.3457 22.1579 33.3457 25.1292 33.3457 28.1005" stroke="white" stroke-width="2" stroke-miterlimit="22.9256"/>
<path d="M9.10645 31.0723C9.10645 35.8845 9.10645 40.6968 9.10645 45.5252" stroke="white" stroke-width="2" stroke-miterlimit="22.9256" stroke-linecap="round" stroke-linejoin="round"/>
<path d="M17.0518 31.0723C17.0518 35.8845 17.0518 40.6968 17.0518 45.5252" stroke="white" stroke-width="2" stroke-miterlimit="22.9256" stroke-linecap="round" stroke-linejoin="round"/>
<path d="M24.9805 31.0723C24.9805 35.8845 24.9805 40.6968 24.9805 45.5252" stroke="white" stroke-width="2" stroke-miterlimit="22.9256" stroke-linecap="round" stroke-linejoin="round"/>
<path d="M32.9258 31.0723C32.9258 35.8845 32.9258 40.6968 32.9258 45.5252" stroke="white" stroke-width="2" stroke-miterlimit="22.9256" stroke-linecap="round" stroke-linejoin="round"/>
</svg>
