<svg width="624" height="230" viewBox="0 0 624 230" fill="none" xmlns="http://www.w3.org/2000/svg">
<g opacity="0.05">
<path d="M623.99 89.3249H572.943C544.903 89.3249 521.956 112.241 521.898 140.264C524.592 125.298 537.686 113.943 553.431 113.943C571.123 113.943 585.935 128.295 585.469 145.986C583.99 202.972 483.021 188.428 483.612 114.846C483.611 80.391 511.044 52.3233 545.184 51.0428H572.942C600.383 51.0428 623.989 28.075 623.988 0C623.988 0 545.508 0 544.553 0C536.574 0.318277 529.238 1.27311 521.902 2.8719C492.87 9.57053 467.991 27.1202 452.04 51.0428C439.597 69.229 432.58 91.2346 432.58 114.846C432.581 138.451 439.599 160.464 452.042 178.65C472.459 209.597 507.554 229.693 547.43 229.693C556.365 229.693 564.655 228.738 572.953 226.821C592.414 222.358 609.639 213.105 623.999 200.345L623.997 89.3324L623.99 89.3249Z" fill="#009933"/>
<path d="M386.836 166.207C379.819 166.207 373.12 167.48 367.057 170.034C364.822 171.307 362.593 172.587 360.04 173.542C352.386 177.051 343.769 178.968 334.835 178.968C299.422 178.968 271.026 150.256 271.025 115.164C271.025 79.754 299.42 51.3607 334.832 51.3607C343.767 51.3607 352.376 52.9595 360.037 56.4679C362.591 57.4228 364.819 58.7033 367.055 59.9764C373.117 62.53 379.817 64.1214 386.834 64.1214C402.468 64.1214 416.821 56.7862 426.074 45.2986C405.657 18.5041 373.435 0.954426 337.385 0.317871C336.43 0.317871 335.468 0.317871 334.831 0.317871C271.349 0.317871 219.978 51.679 219.979 115.157C219.98 178.324 271.346 229.996 334.836 229.996C335.472 229.996 336.427 229.996 337.39 229.678C373.439 229.041 405.661 211.491 426.076 184.697C416.823 173.217 402.47 166.192 386.836 166.192L386.836 166.207Z" fill="#009933"/>
<path d="M149.099 51.0497L149.099 135.075C145.946 195.207 54.571 195.207 51.425 135.075L51.425 51.0497C51.425 22.9746 28.4555 0.00683594 0.378418 0.00683594L0.378418 142.107C0.378418 258.988 200.138 258.996 200.138 142.107L200.138 0.00683594C172.061 0.00683594 149.092 22.982 149.092 51.0497H149.099Z" fill="#009933"/>
</g>
</svg>
