<svg width="10" height="20" viewBox="0 0 10 20" fill="none" xmlns="http://www.w3.org/2000/svg">
<path fill-rule="evenodd" clip-rule="evenodd" d="M3.15527 19.7287H6.5048V11.0081H9.40876L9.8786 7.57442H6.5048V5.07858C6.4963 4.72026 6.56428 4.42867 6.79131 4.13337C6.96613 3.90479 7.31577 3.69598 7.80381 3.69598H10V0.657715H6.95763H6.87022H6.52908V0.660186H6.49872C6.32633 0.662657 6.12237 0.668835 5.82494 0.755325C5.52628 0.841814 5.13294 1.00985 4.78694 1.24585C4.44094 1.48184 4.1435 1.78455 3.90676 2.09839C3.67003 2.41222 3.49399 2.73717 3.37987 3.06831C3.26454 3.3982 3.20991 3.73428 3.1832 4.07035C3.1577 4.38789 3.15649 4.70543 3.15527 5.07981V5.09093V5.10946V5.128V5.14653V5.16507V5.1836V5.20213V5.2219V5.24167V5.26144V5.28121V5.30098V5.32075V5.34052V5.36029V5.38005V5.39982V5.41959V5.43936V5.45913V5.4789V5.4999V5.52091V5.54191V5.56292V5.58392V5.60493V5.62593V5.64694V5.66794V5.68895V5.70995V5.73096V5.75196V5.77296V5.79397V5.81497V5.83598V5.85698V5.87799V5.89899V5.92V5.941V5.96201V5.98425V6.00649V6.02873V6.05097V6.07321V6.09545V6.11769V6.13993V6.16217V6.18441V6.20665V6.22889V6.25113V6.27337V6.29561V6.31785V6.34009V6.36233V6.38457V6.40681V6.42905V6.45129V6.47353V6.49577V7.57936H0V11.013H3.15527V19.7336V19.7287Z" fill="white"/>
</svg>
