<svg width="20" height="18" viewBox="0 0 20 18" fill="none" xmlns="http://www.w3.org/2000/svg">
<path d="M9.83155 12.8097C9.85156 12.8341 9.87712 12.8539 9.90631 12.8675C9.9355 12.8811 9.96754 12.8881 10 12.8881C10.0325 12.8881 10.0645 12.8811 10.0937 12.8675C10.1229 12.8539 10.1484 12.8341 10.1684 12.8097L13.1631 9.18665C13.2727 9.05369 13.1738 8.85682 12.9947 8.85682H11.0134V0.204545C11.0134 0.0920454 10.9171 0 10.7995 0H9.19519C9.07754 0 8.98128 0.0920454 8.98128 0.204545V8.85426H7.00535C6.8262 8.85426 6.72727 9.05114 6.8369 9.18409L9.83155 12.8097ZM19.7861 11.9148H18.1818C18.0642 11.9148 17.9679 12.0068 17.9679 12.1193V16.0568H2.03209V12.1193C2.03209 12.0068 1.93583 11.9148 1.81818 11.9148H0.213904C0.0962567 11.9148 0 12.0068 0 12.1193V17.1818C0 17.6344 0.382353 18 0.855615 18H19.1444C19.6176 18 20 17.6344 20 17.1818V12.1193C20 12.0068 19.9037 11.9148 19.7861 11.9148Z" fill="#009933"/>
</svg>
