<svg width="981" height="536" viewBox="0 0 981 536" fill="none" xmlns="http://www.w3.org/2000/svg">
<mask id="mask0_1711_1920" style="mask-type:alpha" maskUnits="userSpaceOnUse" x="0" y="0" width="981" height="596">
<rect width="981" height="596" fill="#C4C4C4"/>
</mask>
<g mask="url(#mask0_1711_1920)">
<g opacity="0.1">
<path d="M1337.01 473.286C1312.74 473.286 1289.56 477.646 1268.58 486.393C1260.85 490.754 1253.14 495.14 1244.31 498.41C1217.83 510.427 1188.02 516.994 1157.11 516.994C1034.59 516.993 936.348 418.651 936.348 298.455C936.348 177.169 1034.59 79.9167 1157.11 79.9167C1188.02 79.9167 1217.8 85.3928 1244.31 97.4099C1253.14 100.68 1260.85 105.066 1268.58 109.427C1289.56 118.174 1312.74 123.624 1337.01 123.624C1391.1 123.624 1440.76 98.5 1472.77 59.153C1402.14 -32.623 1290.66 -92.7337 1165.94 -94.9141C1162.64 -94.9141 1159.31 -94.9141 1157.11 -94.9141C937.475 -94.9141 759.743 81.0068 759.743 298.43C759.743 514.788 937.45 691.773 1157.11 691.773C1159.31 691.773 1162.61 691.774 1165.94 690.683C1290.66 688.503 1402.14 628.392 1472.77 536.616C1440.76 497.295 1391.1 473.235 1337.01 473.235L1337.01 473.286Z" fill="#009847"/>
<path d="M514.527 78.8551L514.527 366.656C503.617 572.62 187.489 572.62 176.605 366.656L176.605 78.8551C176.605 -17.3068 97.138 -95.9756 0 -95.9756L5.30363e-06 390.741C9.66604e-06 791.082 691.106 791.108 691.106 390.741L691.106 -95.9756C593.968 -95.9756 514.501 -17.2815 514.501 78.8551L514.527 78.8551Z" fill="#009847"/>
</g>
</g>
</svg>
