<svg width="19" height="18" viewBox="0 0 19 18" fill="none" xmlns="http://www.w3.org/2000/svg">
<path fill-rule="evenodd" clip-rule="evenodd" d="M4.93589 0.165039H14.4803C16.8624 0.165039 18.8127 2.11405 18.8127 4.49741V13.6674C18.8127 16.0496 16.8637 17.9998 14.4803 17.9998H4.93589C2.55376 17.9998 0.603516 16.0508 0.603516 13.6674V4.49741C0.603516 2.11528 2.55253 0.165039 4.93589 0.165039ZM9.70871 5.64259C8.75928 5.64259 7.89917 6.02799 7.27642 6.64952C6.65366 7.27228 6.26949 8.13239 6.26949 9.08182C6.26949 10.0312 6.65488 10.8914 7.27642 11.5141C7.89917 12.1369 8.75928 12.521 9.70871 12.521C10.6581 12.521 11.5182 12.1356 12.141 11.5141C12.7638 10.8914 13.1479 10.0312 13.1479 9.08182C13.1479 8.13239 12.7625 7.27228 12.141 6.64952C11.5182 6.02677 10.6581 5.64259 9.70871 5.64259ZM6.0982 5.47253C7.02193 4.54879 8.29925 3.97743 9.70871 3.97743C11.1182 3.97743 12.3955 4.54879 13.3192 5.47253C14.243 6.39626 14.8143 7.67358 14.8143 9.08304C14.8143 10.4925 14.243 11.7698 13.3192 12.6936C12.3955 13.6173 11.1182 14.1887 9.70871 14.1887C8.29925 14.1887 7.02193 13.6173 6.0982 12.6936C5.17447 11.7698 4.6031 10.4925 4.6031 9.08304C4.6031 7.67358 5.17447 6.39626 6.0982 5.47253ZM14.9526 2.60834C14.5488 2.60834 14.2222 2.93502 14.2222 3.33877C14.2222 3.74252 14.5488 4.06919 14.9526 4.06919C15.3563 4.06919 15.683 3.74252 15.683 3.33877C15.683 2.93502 15.3563 2.60834 14.9526 2.60834Z" fill="white"/>
</svg>
