<svg width="422" height="211" viewBox="0 0 422 211" fill="none" xmlns="http://www.w3.org/2000/svg">
<path d="M421.995 60.5467H387.451C368.477 60.5467 352.948 76.0797 352.908 95.0745C354.732 84.9299 363.593 77.2336 374.247 77.2336C386.219 77.2336 396.242 86.9618 395.927 98.9528C394.925 137.58 326.6 127.721 327.001 77.8457C327.001 54.491 345.565 35.4661 368.667 34.5981H387.451C406.02 34.5981 421.995 19.03 421.995 0C421.995 0 368.888 0 368.241 0C362.841 0.215736 357.877 0.862945 352.913 1.94664C333.267 6.48714 316.432 18.3827 305.637 34.5981C297.216 46.9252 292.468 61.8411 292.468 77.8457C292.468 93.8453 297.216 108.766 305.637 121.093C319.452 142.07 343.201 155.691 370.185 155.691C376.231 155.691 381.841 155.044 387.456 153.745C400.626 150.719 412.282 144.448 422 135.799V60.5517L421.995 60.5467Z" fill="#009933"/>
<path d="M261.513 112.66C256.764 112.66 252.231 113.523 248.129 115.253C246.616 116.116 245.108 116.984 243.38 117.632C238.2 120.01 232.37 121.309 226.324 121.309C202.36 121.309 183.145 101.848 183.145 78.0615C183.145 54.0596 202.36 34.8139 226.324 34.8139C232.37 34.8139 238.195 35.8976 243.38 38.2757C245.108 38.9229 246.616 39.7909 248.129 40.6538C252.231 42.3848 256.764 43.4634 261.513 43.4634C272.092 43.4634 281.805 38.4915 288.067 30.7049C274.251 12.5429 252.446 0.647293 228.052 0.21582C227.406 0.21582 226.754 0.21582 226.324 0.21582C183.365 0.21582 148.602 35.0297 148.602 78.0565C148.602 120.873 183.36 155.897 226.324 155.897C226.754 155.897 227.401 155.897 228.052 155.681C252.446 155.25 274.251 143.354 288.067 125.192C281.805 117.411 272.092 112.65 261.513 112.65V112.66Z" fill="#009933"/>
<path d="M100.639 34.603V91.5574C98.5051 132.317 36.672 132.317 34.5432 91.5574V34.603C34.5432 15.573 18.9997 0.00488281 0 0.00488281V96.3237C0 175.549 135.177 175.554 135.177 96.3237V0.00488281C116.177 0.00488281 100.634 15.578 100.634 34.603H100.639Z" fill="#009933"/>
<path d="M9.06157 210.985C6.41673 210.985 4.24276 210.237 2.54465 208.742C0.846548 207.247 0 205.24 0 202.726V186.712H4.6485V202.35C4.6485 203.62 5.01918 204.613 5.75051 205.325C6.48686 206.038 7.58887 206.394 9.06157 206.394C10.5343 206.394 11.6363 206.038 12.3726 205.325C13.109 204.613 13.4746 203.62 13.4746 202.35V186.712H18.1582V202.726C18.1582 205.24 17.3116 207.247 15.6135 208.742C13.9154 210.237 11.7314 210.985 9.06157 210.985ZM39.1115 201.226V186.707H43.7951V210.503H40.2285L30.0449 195.953V210.503H25.3614V186.707H28.9229L39.1065 201.226H39.1115ZM51.2036 210.508V186.712H55.8872V210.508H51.2036ZM61.5325 186.712H79.0145V191.202H72.5977V210.513H67.9142V191.202H61.5325V186.712ZM89.3083 200.685V206.023H99.3216V210.513H84.6247V186.717H99.1513V191.207H89.3083V196.274H98.3047V200.695H89.3083V200.685ZM105.608 186.712H115.045C118.306 186.712 121.021 187.856 123.19 190.149C125.384 192.416 126.481 195.236 126.481 198.612C126.481 201.989 125.384 204.809 123.19 207.076C121.016 209.364 118.301 210.513 115.045 210.513H105.608V186.717V186.712ZM110.292 206.023H115.045C117.104 206.023 118.777 205.345 120.07 203.986C121.362 202.581 122.003 200.79 122.003 198.612C122.003 196.415 121.357 194.634 120.07 193.274C118.782 191.89 117.104 191.202 115.045 191.202H110.292V206.023ZM152.559 210.985C149.007 210.985 146.052 209.796 143.698 207.418C141.368 205.059 140.201 202.124 140.201 198.612C140.201 195.075 141.368 192.14 143.698 189.807C146.052 187.424 149.007 186.24 152.559 186.24C154.708 186.24 156.691 186.742 158.515 187.75C160.338 188.759 161.756 190.123 162.778 191.849L158.74 194.197C158.149 193.134 157.313 192.301 156.226 191.699C155.139 191.097 153.916 190.796 152.559 190.796C150.25 190.796 148.386 191.523 146.959 192.973C145.556 194.448 144.855 196.325 144.855 198.617C144.855 200.885 145.556 202.752 146.959 204.227C148.386 205.677 150.25 206.404 152.559 206.404C153.916 206.404 155.144 206.103 156.241 205.501C157.338 204.899 158.169 204.081 158.735 203.038L162.773 205.386C161.756 207.106 160.333 208.476 158.51 209.485C156.686 210.493 154.703 211 152.554 211L152.559 210.985ZM173.342 200.685V206.023H183.355V210.513H168.658V186.717H183.185V191.207H173.342V196.274H182.338V200.695H173.342V200.685ZM208.075 186.712H212.894V210.508H208.246V195.075L201.558 206.123H201.017L194.33 195.111V210.508H189.647V186.712H194.466L201.288 197.965L208.075 186.712ZM224.986 200.685V206.023H235V210.513H220.303V186.717H234.829V191.207H224.986V196.274H233.983V200.695H224.986V200.685ZM255.036 201.231V186.712H259.72V210.508H256.158L245.975 195.958V210.508H241.291V186.712H244.853L255.036 201.231ZM265.365 186.712H282.847V191.202H276.43V210.513H271.747V191.202H265.365V186.712ZM308.349 197.729H320.26V199.566C320.26 202.967 319.174 205.717 317 207.829C314.826 209.936 312.02 210.99 308.584 210.99C304.917 210.99 301.877 209.801 299.452 207.423C297.053 205.019 295.856 202.094 295.856 198.653C295.856 195.186 297.043 192.251 299.417 189.848C301.817 187.444 304.782 186.245 308.314 186.245C310.508 186.245 312.521 186.742 314.355 187.74C316.188 188.739 317.626 190.088 318.663 191.784L314.66 194.097C314.094 193.124 313.238 192.326 312.081 191.714C310.928 191.102 309.661 190.796 308.279 190.796C305.994 190.796 304.126 191.543 302.678 193.038C301.231 194.488 300.504 196.36 300.504 198.648C300.504 200.89 301.241 202.752 302.708 204.222C304.181 205.672 306.15 206.399 308.614 206.399C310.402 206.399 311.895 206.003 313.092 205.21C314.295 204.417 315.106 203.303 315.537 201.879H308.339V197.729H308.349ZM344.675 210.513H339.616L334.832 202.25H331.271V210.513H326.587V186.717H336.089C338.283 186.717 340.152 187.489 341.69 189.03C343.227 190.57 343.999 192.431 343.999 194.604C343.999 196.079 343.583 197.443 342.742 198.703C341.905 199.962 340.798 200.905 339.416 201.542L344.675 210.518V210.513ZM336.089 191.102H331.271V198.141H336.089C336.971 198.141 337.732 197.795 338.364 197.102C338.995 196.41 339.315 195.577 339.315 194.604C339.315 193.63 339 192.803 338.364 192.12C337.727 191.443 336.971 191.102 336.089 191.102ZM370.142 207.423C367.742 209.801 364.827 210.99 361.386 210.99C357.949 210.99 355.029 209.801 352.63 207.423C350.255 204.999 349.063 202.064 349.063 198.617C349.063 195.151 350.25 192.226 352.63 189.848C355.029 187.444 357.949 186.245 361.386 186.245C364.827 186.245 367.742 187.444 370.142 189.848C372.541 192.226 373.738 195.151 373.738 198.617C373.738 202.084 372.536 205.019 370.142 207.423ZM355.921 204.227C357.368 205.677 359.192 206.404 361.386 206.404C363.58 206.404 365.403 205.682 366.851 204.227C368.318 202.752 369.055 200.885 369.055 198.617C369.055 196.35 368.318 194.478 366.851 193.008C365.378 191.533 363.56 190.801 361.386 190.801C359.212 190.801 357.393 191.538 355.921 193.008C354.448 194.483 353.717 196.35 353.717 198.617C353.717 200.885 354.453 202.752 355.921 204.227ZM388.716 210.99C386.071 210.99 383.897 210.242 382.199 208.747C380.501 207.252 379.654 205.245 379.654 202.732V186.717H384.303V202.355C384.303 203.625 384.673 204.618 385.405 205.33C386.141 206.043 387.243 206.399 388.716 206.399C390.188 206.399 391.29 206.043 392.027 205.33C392.763 204.618 393.129 203.625 393.129 202.355V186.717H397.812V202.732C397.812 205.245 396.961 207.252 395.268 208.747C393.57 210.242 391.386 210.99 388.716 210.99ZM405.02 186.717H413.877C416.141 186.717 418.064 187.489 419.647 189.03C421.21 190.57 421.986 192.466 421.986 194.709C421.986 196.952 421.205 198.843 419.647 200.389C418.064 201.929 416.141 202.701 413.877 202.701H409.704V210.518H405.02V186.722V186.717ZM409.704 198.311H413.877C414.873 198.311 415.7 197.965 416.356 197.273C417.012 196.581 417.343 195.728 417.343 194.704C417.343 193.661 417.012 192.798 416.356 192.12C415.7 191.443 414.873 191.102 413.877 191.102H409.704V198.311Z" fill="white"/>
</svg>
