<svg width="132" height="65" viewBox="0 0 132 65" fill="none" xmlns="http://www.w3.org/2000/svg">
<path d="M131.999 18.6518H121.194C115.259 18.6518 110.402 23.4368 110.389 29.2883C110.959 26.1632 113.731 23.7923 117.064 23.7923C120.808 23.7923 123.944 26.7892 123.845 30.483C123.532 42.3823 102.16 39.3453 102.285 23.9809C102.285 16.7863 108.092 10.9255 115.318 10.6582H121.194C127.002 10.6582 131.999 5.8623 131.999 0C131.999 0 115.387 0 115.185 0C113.496 0.066459 111.943 0.265836 110.391 0.599676C104.245 1.99841 98.9792 5.66292 95.6026 10.6582C92.9688 14.4556 91.4834 19.0505 91.4834 23.9809C91.4834 28.9097 92.9688 33.5062 95.6026 37.3036C99.924 43.7656 107.352 47.9618 115.793 47.9618C117.684 47.9618 119.439 47.7624 121.196 47.3621C125.315 46.4301 128.961 44.4982 132 41.8336V18.6533L131.999 18.6518Z" fill="#009933"/>
<path d="M81.8007 34.7055C80.3153 34.7055 78.8973 34.9713 77.6141 35.5045C77.1409 35.7703 76.6693 36.0377 76.1287 36.2371C74.5086 36.9697 72.6848 37.37 70.7936 37.37C63.2978 37.37 57.2874 31.3748 57.2874 24.0473C57.2874 16.6533 63.2978 10.7246 70.7936 10.7246C72.6848 10.7246 74.507 11.0584 76.1287 11.791C76.6693 11.9904 77.1409 12.2578 77.6141 12.5236C78.8973 13.0568 80.3153 13.3891 81.8007 13.3891C85.1099 13.3891 88.148 11.8575 90.1066 9.45876C85.7852 3.86384 78.9647 0.199324 71.3342 0.0664062C71.132 0.0664062 70.9284 0.0664062 70.7936 0.0664062C57.3563 0.0664062 46.4824 10.791 46.4824 24.0457C46.4824 37.2355 57.3548 48.0251 70.7936 48.0251C70.9284 48.0251 71.1305 48.0251 71.3342 47.9586C78.9647 47.8257 85.7852 44.1612 90.1066 38.5663C88.148 36.1691 85.1099 34.7024 81.8007 34.7024V34.7055Z" fill="#009933"/>
<path d="M31.4795 10.6596V28.2048C30.812 40.7609 11.4709 40.7609 10.805 28.2048V10.6596C10.805 4.79733 5.94305 0.00146484 0 0.00146484V29.6731C0 54.079 42.2829 54.0805 42.2829 29.6731V0.00146484C36.3399 0.00146484 31.4779 4.79888 31.4779 10.6596H31.4795Z" fill="#009933"/>
<path d="M2.83443 64.9952C2.00713 64.9952 1.32712 64.765 0.795958 64.3044C0.264797 63.8438 0 63.2256 0 62.4513V57.5178H1.45403V62.3353C1.45403 62.7264 1.56998 63.0324 1.79874 63.2519C2.02907 63.4713 2.37377 63.5811 2.83443 63.5811C3.29508 63.5811 3.63978 63.4713 3.87011 63.2519C4.10044 63.0324 4.21482 62.7264 4.21482 62.3353V57.5178H5.67982V62.4513C5.67982 63.2256 5.41502 63.8438 4.88386 64.3044C4.3527 64.765 3.66955 64.9952 2.83443 64.9952ZM12.2339 61.9891V57.5163H13.6989V64.8469H12.5833L9.39794 60.3648V64.8469H7.93294V57.5163H9.04697L12.2324 61.9891H12.2339ZM16.0163 64.8484V57.5178H17.4813V64.8484H16.0163ZM19.2471 57.5178H24.7154V58.9011H22.7083V64.85H21.2433V58.9011H19.2471V57.5178ZM27.9353 61.8222V63.4667H31.0674V64.85H26.4703V57.5194H31.0142V58.9027H27.9353V60.4637H30.7494V61.8253H27.9353V61.8222ZM33.0338 57.5178H35.9858C37.0058 57.5178 37.855 57.8702 38.5335 58.5765C39.2197 59.2751 39.5629 60.1437 39.5629 61.1839C39.5629 62.2241 39.2197 63.0927 38.5335 63.7913C37.8534 64.496 37.0042 64.85 35.9858 64.85H33.0338V57.5194V57.5178ZM34.4988 63.4667H35.9858C36.6297 63.4667 37.1531 63.258 37.5573 62.8392C37.9616 62.4064 38.1621 61.8547 38.1621 61.1839C38.1621 60.5069 37.96 59.9583 37.5573 59.5394C37.1546 59.1129 36.6297 58.9011 35.9858 58.9011H34.4988V63.4667ZM47.7199 64.9952C46.609 64.9952 45.6845 64.629 44.9481 63.8964C44.2195 63.1699 43.8545 62.2658 43.8545 61.1839C43.8545 60.0943 44.2195 59.1901 44.9481 58.4714C45.6845 57.7373 46.609 57.3726 47.7199 57.3726C48.392 57.3726 49.0125 57.5271 49.5829 57.8378C50.1532 58.1484 50.5966 58.5688 50.9162 59.1005L49.6534 59.8238C49.4685 59.4962 49.2068 59.2396 48.8668 59.0541C48.5268 58.8687 48.1445 58.7759 47.7199 58.7759C46.9976 58.7759 46.4147 59 45.9681 59.4467C45.5294 59.9011 45.3101 60.4791 45.3101 61.1854C45.3101 61.884 45.5294 62.459 45.9681 62.9134C46.4147 63.36 46.9976 63.5842 47.7199 63.5842C48.1445 63.5842 48.5284 63.4914 48.8715 63.306C49.2146 63.1205 49.4747 62.8686 49.6518 62.5471L50.9147 63.2704C50.5966 63.8005 50.1516 64.2225 49.5813 64.5331C49.011 64.8438 48.3905 64.9999 47.7183 64.9999L47.7199 64.9952ZM54.2207 61.8222V63.4667H57.3528V64.85H52.7557V57.5194H57.2996V58.9027H54.2207V60.4637H57.0348V61.8253H54.2207V61.8222ZM65.0852 57.5178H66.5925V64.8484H65.1385V60.0943L63.0468 63.4976H62.8775L60.7858 60.1051V64.8484H59.3208V57.5178H60.8281L62.9622 60.9845L65.0852 57.5178ZM70.3749 61.8222V63.4667H73.507V64.85H68.9099V57.5194H73.4538V58.9027H70.3749V60.4637H73.189V61.8253H70.3749V61.8222ZM79.7744 61.9907V57.5178H81.2394V64.8484H80.1254L76.94 60.3663V64.8484H75.475V57.5178H76.589L79.7744 61.9907ZM83.0053 57.5178H88.4735V58.9011H86.4664V64.85H85.0014V58.9011H83.0053V57.5178ZM96.4504 60.9119H100.176V61.4776C100.176 62.5254 99.8363 63.3724 99.1563 64.0231C98.4763 64.6722 97.5989 64.9968 96.524 64.9968C95.3771 64.9968 94.426 64.6305 93.6676 63.8979C92.9171 63.1576 92.5426 62.2565 92.5426 61.1963C92.5426 60.1283 92.914 59.2241 93.6567 58.4838C94.4072 57.7435 95.3348 57.3741 96.4394 57.3741C97.1257 57.3741 97.7555 57.5271 98.329 57.8347C98.9025 58.1422 99.3522 58.558 99.6765 59.0804L98.4246 59.7929C98.2475 59.4931 97.9796 59.2473 97.6177 59.0588C97.2573 58.8702 96.8609 58.7759 96.4284 58.7759C95.7139 58.7759 95.1295 59.0062 94.6767 59.4668C94.2239 59.9135 93.9967 60.4899 93.9967 61.1947C93.9967 61.8856 94.227 62.459 94.6861 62.9118C95.1467 63.3585 95.7625 63.5826 96.5334 63.5826C97.0928 63.5826 97.5597 63.4605 97.9342 63.2163C98.3102 62.9721 98.564 62.629 98.6988 62.1901H96.4472V60.9119H96.4504ZM107.813 64.85H106.231L104.734 62.3044H103.62V64.85H102.155V57.5194H105.128C105.814 57.5194 106.398 57.7574 106.879 58.2319C107.36 58.7064 107.602 59.2798 107.602 59.949C107.602 60.4034 107.472 60.8238 107.208 61.2117C106.947 61.5997 106.6 61.8902 106.168 62.0865L107.813 64.8515V64.85ZM105.128 58.8702H103.62V61.0386H105.128C105.403 61.0386 105.641 60.932 105.839 60.7187C106.036 60.5054 106.137 60.2488 106.137 59.949C106.137 59.6492 106.038 59.3941 105.839 59.184C105.64 58.9753 105.403 58.8702 105.128 58.8702ZM115.779 63.8979C115.028 64.6305 114.117 64.9968 113.04 64.9968C111.965 64.9968 111.052 64.6305 110.301 63.8979C109.559 63.1514 109.186 62.2472 109.186 61.1854C109.186 60.1175 109.557 59.2164 110.301 58.4838C111.052 57.7435 111.965 57.3741 113.04 57.3741C114.117 57.3741 115.028 57.7435 115.779 58.4838C116.529 59.2164 116.904 60.1175 116.904 61.1854C116.904 62.2534 116.528 63.1576 115.779 63.8979ZM111.331 62.9134C111.784 63.36 112.354 63.5842 113.04 63.5842C113.726 63.5842 114.297 63.3616 114.75 62.9134C115.209 62.459 115.439 61.884 115.439 61.1854C115.439 60.4869 115.209 59.9104 114.75 59.4575C114.289 59.0031 113.72 58.7775 113.04 58.7775C112.36 58.7775 111.791 59.0047 111.331 59.4575C110.87 59.9119 110.641 60.4869 110.641 61.1854C110.641 61.884 110.872 62.459 111.331 62.9134ZM121.589 64.9968C120.762 64.9968 120.082 64.7665 119.55 64.3059C119.019 63.8454 118.754 63.2271 118.754 62.4528V57.5194H120.208V62.3369C120.208 62.7279 120.324 63.0339 120.553 63.2534C120.783 63.4729 121.128 63.5826 121.589 63.5826C122.049 63.5826 122.394 63.4729 122.625 63.2534C122.855 63.0339 122.969 62.7279 122.969 62.3369V57.5194H124.434V62.4528C124.434 63.2271 124.168 63.8454 123.638 64.3059C123.107 64.7665 122.424 64.9968 121.589 64.9968ZM126.689 57.5194H129.459C130.167 57.5194 130.769 57.7574 131.264 58.2319C131.753 58.7064 131.996 59.2906 131.996 59.9815C131.996 60.6723 131.751 61.255 131.264 61.731C130.769 62.2055 130.167 62.4435 129.459 62.4435H128.154V64.8515H126.689V57.5209V57.5194ZM128.154 61.0912H129.459C129.771 61.0912 130.029 60.9845 130.235 60.7712C130.44 60.558 130.543 60.2952 130.543 59.9799C130.543 59.6584 130.44 59.3926 130.235 59.184C130.029 58.9753 129.771 58.8702 129.459 58.8702H128.154V61.0912Z" fill="#2B2B2A"/>
</svg>
