<svg width="10" height="8" viewBox="0 0 10 8" fill="none" xmlns="http://www.w3.org/2000/svg">
<g clip-path="url(#clip0_1248_17193)">
<path fill-rule="evenodd" clip-rule="evenodd" d="M0.716398 0H9.2836C9.67767 0 10 0.345149 10 0.767156V7.23284C10 7.65483 9.67767 8 9.2836 8H0.716398C0.322334 8 0 7.65483 0 7.23284V0.767156C0 0.345149 0.322334 0 0.716398 0ZM0.889312 1.34361C0.786644 1.23424 0.786192 1.05626 0.888322 0.946342C0.990453 0.8364 1.15665 0.835893 1.25932 0.945282L1.26451 0.950766C2.34424 2.09325 3.42322 3.23486 4.06722 3.84492C4.37891 4.14015 4.58502 4.30814 4.73673 4.40003C4.85445 4.47138 4.92858 4.48791 4.99941 4.4878C5.06939 4.48758 5.14311 4.47038 5.26144 4.39821C5.41251 4.30602 5.61841 4.1377 5.93037 3.84226C6.5743 3.23214 7.65447 2.09191 8.73536 0.950915L8.74068 0.945294C8.84334 0.835904 9.00955 0.836411 9.11168 0.946354C9.21381 1.05627 9.21336 1.23425 9.11069 1.34362L9.10326 1.35152C8.02105 2.49385 6.93965 3.63548 6.27773 4.26257C5.93541 4.58674 5.70149 4.77633 5.52041 4.88684C5.30649 5.0174 5.15469 5.04853 4.99941 5.04897C4.84479 5.0493 4.69294 5.01903 4.47773 4.88868C4.29649 4.77888 4.06228 4.58963 3.71982 4.26524C3.05788 3.63815 1.97757 2.49519 0.896605 1.35138L0.889312 1.34362V1.34361Z" fill="white"/>
</g>
<defs>
<clipPath id="clip0_1248_17193">
<rect width="10" height="8" fill="white"/>
</clipPath>
</defs>
</svg>
