<svg width="13" height="11" viewBox="0 0 13 11" fill="none" xmlns="http://www.w3.org/2000/svg">
<g clip-path="url(#clip0_1248_17896)">
<path fill-rule="evenodd" clip-rule="evenodd" d="M0.931317 0H12.0687C12.581 0 13 0.448693 13 0.997302V9.4027C13 9.95128 12.581 10.4 12.0687 10.4H0.931317C0.419034 10.4 0 9.95128 0 9.4027V0.997302C0 0.448693 0.419034 0 0.931317 0V0ZM1.15611 1.74669C1.02264 1.60451 1.02205 1.37314 1.15482 1.23024C1.28759 1.08732 1.50365 1.08666 1.63712 1.22887L1.64386 1.236C3.04751 2.72123 4.45019 4.20532 5.28739 4.9984C5.69258 5.38219 5.96052 5.60058 6.15775 5.72004C6.31078 5.81279 6.40715 5.83428 6.49924 5.83413C6.59021 5.83385 6.68604 5.81149 6.83987 5.71767C7.03626 5.59782 7.30394 5.37902 7.70948 4.99494C8.54659 4.20178 9.95081 2.71949 11.356 1.23619L11.3629 1.22888C11.4963 1.08668 11.7124 1.08733 11.8452 1.23026C11.9779 1.37315 11.9774 1.60452 11.8439 1.7467L11.8342 1.75697C10.4274 3.24201 9.02154 4.72612 8.16105 5.54133C7.71604 5.96276 7.41194 6.20922 7.17654 6.3529C6.89844 6.52261 6.70109 6.56309 6.49924 6.56366C6.29822 6.56409 6.10082 6.52474 5.82105 6.35528C5.58544 6.21255 5.28097 5.96652 4.83577 5.54481C3.97524 4.72959 2.57084 3.24375 1.16559 1.75679L1.15611 1.7467V1.74669Z" fill="#2B2B2A"/>
</g>
<defs>
<clipPath id="clip0_1248_17896">
<rect width="13" height="10.4" fill="white"/>
</clipPath>
</defs>
</svg>
