<svg width="13" height="13" viewBox="0 0 13 13" fill="none" xmlns="http://www.w3.org/2000/svg">
<path d="M5.40372 7.59156C6.20058 8.41703 7.16476 9.05435 8.22854 9.45874L9.66768 8.28932C9.71034 8.25931 9.76093 8.24325 9.81273 8.24325C9.86454 8.24325 9.91512 8.25931 9.95779 8.28932L12.6299 10.0473C12.7314 10.1096 12.8172 10.1951 12.8808 10.2971C12.9443 10.3991 12.9837 10.5148 12.9959 10.635C13.0081 10.7553 12.9928 10.8767 12.9512 10.9899C12.9095 11.103 12.8427 11.2047 12.7559 11.2869L11.5038 12.5499C11.3245 12.7308 11.1041 12.8636 10.8623 12.9364C10.6205 13.0092 10.3649 13.0197 10.1181 12.967C7.65679 12.4479 5.38812 11.2322 3.57141 9.45874C1.79501 7.66767 0.56575 5.3887 0.0327472 2.89829C-0.0199066 2.65023 -0.00891707 2.39249 0.0646509 2.15004C0.138219 1.9076 0.27187 1.68867 0.452653 1.51447L1.75054 0.235907C1.83086 0.151625 1.92881 0.0869906 2.03705 0.0468416C2.1453 0.00669265 2.26103 -0.00793002 2.3756 0.00406858C2.49016 0.0160672 2.60058 0.0543761 2.69859 0.116127C2.7966 0.177878 2.87966 0.26147 2.94155 0.360645L4.72042 3.05421C4.75111 3.09651 4.76767 3.14775 4.76767 3.20039C4.76767 3.25303 4.75111 3.30427 4.72042 3.34657L3.5485 4.78495C3.95527 5.84949 4.589 6.80822 5.40372 7.59156Z" fill="#2B2B2A"/>
</svg>
