<svg width="14" height="22" viewBox="0 0 14 22" fill="none" xmlns="http://www.w3.org/2000/svg">
<path fill-rule="evenodd" clip-rule="evenodd" d="M10.4492 1.07818L13.3429 2.74884C13.7269 2.97058 13.8585 3.46148 13.6367 3.84554L4.94314 18.9033C4.87815 19.0158 4.79049 19.1065 4.69062 19.1724C4.59634 19.2593 4.50207 19.3461 4.39939 19.4016L1.15249 21.447C0.682676 21.7408 0.317184 21.6093 0.34102 21.1551L0.502837 16.9753C0.508984 16.8729 0.533221 16.7545 0.570702 16.6437C0.589067 16.566 0.620675 16.496 0.658905 16.4298L9.35249 1.37204C9.57422 0.987977 10.0651 0.85644 10.4492 1.07818L10.4492 1.07818ZM9.79219 4.43349C9.94511 4.16862 10.2898 4.07627 10.5547 4.22919C10.8195 4.38211 10.9119 4.72679 10.759 4.99165L4.8753 15.1824C4.72238 15.4473 4.3777 15.5397 4.11284 15.3867C3.84797 15.2338 3.75561 14.8891 3.90853 14.6243L9.79219 4.43349Z" fill="white"/>
</svg>
