<svg width="22" height="20" viewBox="0 0 22 20" fill="none" xmlns="http://www.w3.org/2000/svg">
<path d="M22 2.9157C21.1903 3.2994 20.3204 3.55761 19.4075 3.67407C20.3399 3.07821 21.0549 2.13475 21.3916 1.00982C20.5201 1.56145 19.5539 1.96231 18.525 2.17899C17.7017 1.24275 16.529 0.657715 15.231 0.657715C12.7384 0.657715 10.7178 2.81458 10.7178 5.47342C10.7178 5.8508 10.7584 6.21916 10.8346 6.57036C7.08373 6.36993 3.75847 4.45232 1.53148 1.53798C1.14396 2.24941 0.921426 3.0764 0.921426 3.96027C0.921426 5.63051 1.71763 7.10483 2.92843 7.96794C2.18892 7.94266 1.49256 7.72598 0.884197 7.36575C0.884197 7.38652 0.884197 7.40548 0.884197 7.42624C0.884197 9.76006 2.43937 11.7066 4.50475 12.1481C4.12653 12.2582 3.72716 12.3169 3.3151 12.3169C3.02488 12.3169 2.74143 12.2862 2.46644 12.2311C3.04096 14.1442 4.70782 15.5373 6.68267 15.5761C5.13849 16.8681 3.19242 17.6382 1.07711 17.6382C0.71328 17.6382 0.353679 17.6156 0 17.5705C1.99769 18.9364 4.36937 19.7336 6.91873 19.7336C15.2209 19.7336 19.7595 12.3954 19.7595 6.03137C19.7595 5.82281 19.7552 5.61516 19.7468 5.40841C20.6293 4.72858 21.395 3.88082 22 2.9157Z" fill="white"/>
</svg>
