<svg width="62" height="70" viewBox="0 0 62 70" fill="none" xmlns="http://www.w3.org/2000/svg">
<path fill-rule="evenodd" clip-rule="evenodd" d="M3.95764 1H11.1517C12.7756 1 14.1093 2.32381 14.1093 3.95312V9.84368H25.477C26.4106 7.72088 28.5288 6.23258 31 6.23258C33.4712 6.23258 35.5973 7.72088 36.523 9.84368H47.8907V3.95312C47.8907 2.33164 49.2165 1 50.8483 1H58.0424C59.6663 1 61 2.32381 61 3.95312V20.5517C61 22.1731 59.6742 23.5048 58.0424 23.5048H50.8483C49.2244 23.5048 47.8907 22.181 47.8907 20.5517V14.6611H36.523C35.9189 16.0476 34.7971 17.1677 33.4085 17.7709V52.2291C34.7971 52.8323 35.9189 53.9524 36.523 55.3389H47.8907V49.4483C47.8907 47.8269 49.2165 46.4952 50.8483 46.4952H58.0424C59.6663 46.4952 61 47.819 61 49.4483V66.0469C61 67.6684 59.6742 69 58.0424 69H50.8483C49.2244 69 47.8907 67.6762 47.8907 66.0469V60.1563H36.523C35.5894 62.2791 33.4712 63.7674 31 63.7674C28.5288 63.7674 26.4027 62.2791 25.477 60.1563H14.1093V66.0469C14.1093 67.6684 12.7835 69 11.1517 69H3.95764C2.33368 69 1 67.6762 1 66.0469V49.4483C1 47.8269 2.32584 46.4952 3.95764 46.4952H11.1517C12.7756 46.4952 14.1093 47.819 14.1093 49.4483V55.3389H25.477C26.0811 53.9524 27.2029 52.8323 28.5915 52.2291V17.7709C27.2029 17.1677 26.0811 16.0476 25.477 14.6611H14.1093V20.5517C14.1093 22.1731 12.7835 23.5048 11.1517 23.5048H3.95764C2.33368 23.5048 1 22.181 1 20.5517V3.95312C1 2.33164 2.32584 1 3.95764 1V1Z" stroke="#E6E6E6" stroke-width="2" stroke-miterlimit="22.9256"/>
</svg>
