<svg width="69" height="48" viewBox="0 0 69 48" fill="none" xmlns="http://www.w3.org/2000/svg">
<path fill-rule="evenodd" clip-rule="evenodd" d="M28.5361 7.95162V39.5564C28.5361 39.6193 28.5324 39.6822 28.525 39.7433C28.6139 40.0757 28.4675 40.4422 28.0895 40.7081L21.6748 45.2108C21.0819 45.6276 20.135 45.6438 19.5718 45.2485L13.0496 40.6704C12.7068 40.4296 12.5808 40.0883 12.6697 39.7648C12.6605 39.6966 12.6568 39.6283 12.6568 39.5582V7.95341C11.5598 7.95341 11.1856 6.95263 10.6612 6.01832L8.93058 2.9351C8.40622 2.00079 9.82924 1 10.9262 1H30.4798C31.5767 1 33.0479 2.02774 32.4753 2.9351L30.5335 6.01832C29.961 6.92747 29.6348 7.95341 28.5379 7.95341L28.5361 7.95162Z" stroke="#E6E6E6" stroke-width="2" stroke-miterlimit="22.9256"/>
<path d="M12.6562 13.6637C17.9722 12.282 23.29 10.9003 28.606 9.51855" stroke="#E6E6E6" stroke-width="2" stroke-miterlimit="22.9256"/>
<path d="M12.6562 17.2252C17.9722 15.8435 23.29 14.4618 28.606 13.0801" stroke="#E6E6E6" stroke-width="2" stroke-miterlimit="22.9256"/>
<path d="M12.6562 20.7857C17.9722 19.404 23.29 18.0223 28.606 16.6406" stroke="#E6E6E6" stroke-width="2" stroke-miterlimit="22.9256"/>
<path d="M12.6562 24.3472C17.9722 22.9655 23.29 21.5838 28.606 20.2021" stroke="#E6E6E6" stroke-width="2" stroke-miterlimit="22.9256"/>
<path d="M12.6562 27.9078C17.9722 26.5261 23.29 25.1444 28.606 23.7627" stroke="#E6E6E6" stroke-width="2" stroke-miterlimit="22.9256"/>
<path d="M12.6562 31.4693C17.9722 30.0876 23.29 28.7059 28.606 27.3242" stroke="#E6E6E6" stroke-width="2" stroke-miterlimit="22.9256"/>
<path d="M12.6562 35.0299C17.9722 33.6482 23.29 32.2665 28.606 30.8848" stroke="#E6E6E6" stroke-width="2" stroke-miterlimit="22.9256"/>
<path d="M12.6562 38.5914C17.9722 37.2097 23.29 35.828 28.606 34.4463" stroke="#E6E6E6" stroke-width="2" stroke-miterlimit="22.9256"/>
<path fill-rule="evenodd" clip-rule="evenodd" d="M56.1181 7.95162V39.5564C56.1181 39.6193 56.1144 39.6822 56.107 39.7433C56.1959 40.0757 56.0496 40.4422 55.6716 40.7081L49.2568 45.2108C48.6639 45.6276 47.7171 45.6438 47.1538 45.2485L40.6316 40.6704C40.2888 40.4296 40.1628 40.0883 40.2518 39.7648C40.2425 39.6966 40.2388 39.6283 40.2388 39.5582V7.95341C39.1419 7.95341 38.7676 6.95263 38.2432 6.01832L36.5126 2.9351C35.9882 2.00079 37.4113 1 38.5082 1H58.0618C59.1606 1 60.6299 2.02774 60.0574 2.9351L58.1155 6.01832C57.543 6.92747 57.2169 7.95341 56.12 7.95341L56.1181 7.95162Z" stroke="#E6E6E6" stroke-width="2" stroke-miterlimit="22.9256"/>
<path d="M40.2383 17.2252C45.5542 15.8435 50.8721 14.4618 56.188 13.0801" stroke="#E6E6E6" stroke-width="2" stroke-miterlimit="22.9256"/>
<path d="M40.2383 24.3472C45.5542 22.9655 50.8721 21.5838 56.188 20.2021" stroke="#E6E6E6" stroke-width="2" stroke-miterlimit="22.9256"/>
<path d="M40.2383 31.4693C45.5542 30.0876 50.8721 28.7059 56.188 27.3242" stroke="#E6E6E6" stroke-width="2" stroke-miterlimit="22.9256"/>
<path d="M40.2383 38.5914C45.5542 37.2097 50.8721 35.828 56.188 34.4463" stroke="#E6E6E6" stroke-width="2" stroke-miterlimit="22.9256"/>
<path d="M0 47C23 47 46 47 69 47" stroke="#E6E6E6" stroke-width="2" stroke-miterlimit="22.9256"/>
</svg>
