<svg width="35" height="63" viewBox="0 0 35 63" fill="none" xmlns="http://www.w3.org/2000/svg">
<path fill-rule="evenodd" clip-rule="evenodd" d="M29.3636 15.2507V47.5699C31.5705 48.9492 33.0396 51.3999 33.0396 54.1938C33.0396 58.5049 29.5448 61.9997 25.2337 61.9997C20.9225 61.9997 17.4277 58.5049 17.4277 54.1938C17.4277 51.3999 18.8969 48.9476 21.1038 47.5699V15.2507C18.8969 13.8714 17.4277 11.4207 17.4277 8.62683C17.4277 5.83292 18.8969 3.38064 21.1038 2.00293V7.42234C20.9931 7.80405 20.9321 8.20822 20.9321 8.62683C20.9321 11.0021 22.8568 12.9267 25.2321 12.9267C27.6074 12.9267 29.532 11.0021 29.532 8.62683C29.532 8.20822 29.4726 7.80405 29.3604 7.42234V2.00293C31.5673 3.38224 33.0364 5.83292 33.0364 8.62683C33.0364 11.4207 31.5673 13.873 29.3604 15.2507H29.3636ZM25.2353 49.8939C22.86 49.8939 20.9354 51.8185 20.9354 54.1938C20.9354 56.5691 22.86 58.4937 25.2353 58.4937C27.6106 58.4937 29.5352 56.5691 29.5352 54.1938C29.5352 51.8185 27.6106 49.8939 25.2353 49.8939Z" stroke="#E6E6E6" stroke-width="2" stroke-miterlimit="22.9256"/>
<path fill-rule="evenodd" clip-rule="evenodd" d="M3.13152 37.3184H3.45229V16.3913H3.25822C2.21893 16.3913 1.36889 15.5413 1.36889 14.502V3.88933C1.36889 2.85004 2.21893 2 3.25822 2H6.9984C8.03769 2 8.88773 2.85004 8.88773 3.88933V14.502C8.88773 15.5413 8.03769 16.3913 6.9984 16.3913H6.80433V37.3184H7.1251C8.29912 37.3184 9.25822 38.2791 9.25822 39.4515V59.8653C9.25822 61.0393 8.29752 61.9984 7.1251 61.9984H3.13312C1.9591 61.9984 1 61.0377 1 59.8653V39.4515C1 38.2775 1.96071 37.3184 3.13312 37.3184H3.13152Z" stroke="#E6E6E6" stroke-width="2" stroke-miterlimit="22.9256"/>
</svg>
