<svg width="74" height="74" viewBox="0 0 74 74" fill="none" xmlns="http://www.w3.org/2000/svg">
<path d="M70.2778 44.2002H3.72222C2.21878 44.2002 1 45.4623 1 47.0191V69.6357C1 71.1925 2.21878 72.4546 3.72222 72.4546H70.2778C71.7812 72.4546 73 71.1925 73 69.6357V47.0191C73 45.4623 71.7812 44.2002 70.2778 44.2002Z" stroke="#E6E6E6" stroke-width="2" stroke-miterlimit="22.9256"/>
<path fill-rule="evenodd" clip-rule="evenodd" d="M72.994 51.4049H36.6556C35.5161 51.4049 34.5859 52.3681 34.5859 53.5481V54.8592C34.5859 56.0392 35.5161 57.0024 36.6556 57.0024H72.994V51.3999V51.4049Z" stroke="#E6E6E6" stroke-width="2" stroke-miterlimit="22.9256"/>
<path fill-rule="evenodd" clip-rule="evenodd" d="M72.994 61.3996H36.6556C35.5161 61.3996 34.5859 62.3627 34.5859 63.5427V64.8538C34.5859 66.0338 35.5161 66.997 36.6556 66.997H72.994V61.3945V61.3996Z" stroke="#E6E6E6" stroke-width="2" stroke-miterlimit="22.9256"/>
<path d="M25.0508 44.7456C25.0508 54.1654 25.0508 63.5802 25.0508 73" stroke="#E6E6E6" stroke-width="2" stroke-miterlimit="22.9256"/>
<path fill-rule="evenodd" clip-rule="evenodd" d="M19 44.2H7L8.29692 3.1712C8.33437 1.97605 9.21459 1 10.3383 1H15.6617C16.7854 1 17.6656 1.97605 17.7031 3.1712L19 44.2Z" stroke="#E6E6E6" stroke-width="2" stroke-miterlimit="22.9256"/>
<path fill-rule="evenodd" clip-rule="evenodd" d="M19.6113 51.675H6.44336V55.1292C6.44336 56.3092 7.37349 57.2724 8.51302 57.2724H19.6113V51.6699V51.675Z" stroke="#E6E6E6" stroke-width="2" stroke-miterlimit="22.9256"/>
<path fill-rule="evenodd" clip-rule="evenodd" d="M19.6113 60.4689H6.44336V63.9232C6.44336 65.1032 7.37349 66.0663 8.51302 66.0663H17.8095C18.8029 66.0663 19.6113 65.2242 19.6113 64.2005V60.4639V60.4689Z" stroke="#E6E6E6" stroke-width="2" stroke-miterlimit="22.9256"/>
</svg>
