<svg width="62" height="62" viewBox="0 0 62 62" fill="none" xmlns="http://www.w3.org/2000/svg">
<path d="M32.1199 28.8591C31.6015 28.8591 31.083 28.8591 30.5697 28.8591C30.5697 26.0415 30.5697 23.2239 30.5697 20.4062C28.3752 25.0855 26.1808 29.7698 23.9863 34.449C26.1506 34.449 28.3148 34.449 30.474 34.449C29.9103 37.0503 29.3416 39.6515 28.7779 42.2528C32.3766 37.7849 35.9702 33.322 39.5689 28.854C38.4163 28.854 37.2637 28.854 36.1112 28.854" stroke="#E6E6E6" stroke-width="2" stroke-miterlimit="22.9256" stroke-linecap="round" stroke-linejoin="round"/>
<path d="M31.003 45.3821C38.9502 45.3821 45.3927 38.9418 45.3927 30.9972C45.3927 23.0526 38.9502 16.6123 31.003 16.6123C23.0558 16.6123 16.6133 23.0526 16.6133 30.9972C16.6133 38.9418 23.0558 45.3821 31.003 45.3821Z" stroke="#E6E6E6" stroke-width="2" stroke-miterlimit="22.9256"/>
<path fill-rule="evenodd" clip-rule="evenodd" d="M25.3704 7.78742C22.9344 8.3761 20.6443 9.33711 18.5656 10.605L15.5156 7.55598C14.5542 6.59497 12.9738 6.59497 12.0125 7.55598L7.55314 12.0138C6.59181 12.9748 6.59181 14.5547 7.55314 15.5157L10.6083 18.5698C9.3399 20.6478 8.37858 22.9371 7.7897 25.3723H3.4763C2.11232 25.3723 1 26.4843 1 27.8478V34.1522C1 35.5157 2.11232 36.6277 3.4763 36.6277H7.7897C8.37858 39.0629 9.3399 41.3472 10.6083 43.4302L7.55314 46.4843C6.59181 47.4453 6.59181 49.0252 7.55314 49.9862L12.0125 54.444C12.9738 55.405 14.5542 55.405 15.5156 54.444L18.5656 51.395C20.6443 52.6629 22.9344 53.6289 25.3704 54.2126V58.5245C25.3704 59.8881 26.4828 61 27.8467 61H34.1533C35.5172 61 36.6296 59.8881 36.6296 58.5245V54.2126C39.0656 53.6239 41.3557 52.6629 43.4344 51.395L46.4844 54.444C47.4458 55.405 49.0262 55.405 49.9875 54.444L54.4469 49.9862C55.4082 49.0252 55.4082 47.4453 54.4469 46.4843L51.3917 43.4302C52.6601 41.3522 53.6214 39.0629 54.2103 36.6277H58.5237C59.8877 36.6277 61 35.5157 61 34.1522V27.8478C61 26.4843 59.8877 25.3723 58.5237 25.3723H54.2103C53.6214 22.9371 52.6601 20.6528 51.3917 18.5698L54.4469 15.5157C55.4082 14.5547 55.4082 12.9748 54.4469 12.0138L49.9875 7.55598C49.0262 6.59497 47.4458 6.59497 46.4844 7.55598L43.4344 10.605C41.3557 9.33711 39.0656 8.37107 36.6296 7.78742V3.47547C36.6296 2.11195 35.5172 1 34.1533 1H27.8467C26.4828 1 25.3704 2.11195 25.3704 3.47547V7.78742V7.78742Z" stroke="#E6E6E6" stroke-width="2" stroke-miterlimit="22.9256"/>
<path d="M33.6387 28.8594C33.9809 28.8594 34.3282 28.8594 34.6705 28.8594" stroke="#E6E6E6" stroke-width="2" stroke-miterlimit="22.9256" stroke-linecap="round" stroke-linejoin="round"/>
</svg>
