<svg width="62" height="69" viewBox="0 0 62 69" fill="none" xmlns="http://www.w3.org/2000/svg">
<path fill-rule="evenodd" clip-rule="evenodd" d="M9.074 1H52.9168C57.3614 1 61 4.53363 61 8.85002V51.428C61 53.6242 60.0558 55.6191 58.5451 57.0505C57.5318 53.3111 54.0268 50.5513 49.8585 50.5513C44.8981 50.5513 40.8726 54.4562 40.8726 59.278H21.1274C21.1274 54.4606 17.1065 50.5513 12.1415 50.5513C7.97321 50.5513 4.46818 53.3111 3.4549 57.0505C1.94419 55.6236 1 53.6287 1 51.428V8.85002C1 4.53363 4.6386 1 9.08321 1H9.074Z" stroke="#E6E6E6" stroke-width="2" stroke-miterlimit="22.9256"/>
<path d="M49.8551 68.0003C54.8179 68.0003 58.841 64.0932 58.841 59.2736C58.841 54.454 54.8179 50.5469 49.8551 50.5469C44.8923 50.5469 40.8691 54.454 40.8691 59.2736C40.8691 64.0932 44.8923 68.0003 49.8551 68.0003Z" stroke="#E6E6E6" stroke-width="2" stroke-miterlimit="22.9256"/>
<path d="M12.1383 68.0003C17.1011 68.0003 21.1243 64.0932 21.1243 59.2736C21.1243 54.454 17.1011 50.5469 12.1383 50.5469C7.17549 50.5469 3.15234 54.454 3.15234 59.2736C3.15234 64.0932 7.17549 68.0003 12.1383 68.0003Z" stroke="#E6E6E6" stroke-width="2" stroke-miterlimit="22.9256"/>
<path d="M23.5273 40.8223C28.5062 40.8223 33.4805 40.8223 38.4594 40.8223" stroke="#E6E6E6" stroke-width="2" stroke-miterlimit="22.9256" stroke-linecap="round"/>
<path d="M32.3091 40.8227C32.3091 41.5294 31.7196 42.102 30.9919 42.102C30.2641 42.102 29.6746 41.5294 29.6746 40.8227H32.3091ZM29.6746 27.5604H32.3091V27.9764V28.3924V28.8084V29.2244V29.6403V30.0563V30.4723V30.8883V31.3043V31.7203V32.1362V32.5522V32.9682V33.3842V33.8002V34.2162V34.6321V35.0481V35.4641V35.8801V36.2961V36.7121V37.128V37.544V37.96V38.376V38.792V39.208V39.624V40.0399V40.4559V40.8719H29.6746V40.4559V40.0399V39.624V39.208V38.792V38.376V37.96V37.544V37.128V36.7121V36.2961V35.8801V35.4641V35.0481V34.6321V34.2162V33.8002V33.3842V32.9682V32.5522V32.1362V31.7203V31.3043V30.8883V30.4723V30.0563V29.6403V29.2244V28.8084V28.3924V27.9764V27.5604ZM24.1016 28.616L30.9919 16.4541L37.8822 28.616H24.1016ZM29.6746 27.5604C29.6746 26.8537 30.2641 26.2812 30.9919 26.2812C31.7196 26.2812 32.3091 26.8537 32.3091 27.5604H29.6746Z" fill="#E6E6E6"/>
</svg>
