<svg width="69" height="61" viewBox="0 0 69 61" fill="none" xmlns="http://www.w3.org/2000/svg">
<path fill-rule="evenodd" clip-rule="evenodd" d="M13.5063 59.9997H60.4996C61.835 59.9997 62.9307 58.9157 62.9307 57.5946V13.7401L37.0005 6.86816L11.0703 13.7401V57.5946C11.0703 58.9206 12.166 59.9997 13.5014 59.9997H13.5063Z" stroke="#E6E6E6" stroke-width="2" stroke-miterlimit="22.9256"/>
<path fill-rule="evenodd" clip-rule="evenodd" d="M8.23268 14.4953C7.82178 12.9806 7.41089 11.4658 7 9.95111C16.9984 7.29912 27.0016 4.64714 37 2C46.9984 4.65198 57.0016 7.30396 67 9.95111C66.5891 11.4658 66.1782 12.9806 65.7673 14.4953C56.175 11.9546 46.5875 9.40909 36.9951 6.86842C27.4027 9.40909 17.8153 11.9546 8.22289 14.4953H8.23268Z" stroke="#E6E6E6" stroke-width="2" stroke-miterlimit="22.9256"/>
<path d="M11.0742 23.1963C28.361 23.1963 45.6429 23.1963 62.9297 23.1963" stroke="#E6E6E6" stroke-width="2" stroke-miterlimit="22.9256"/>
<path d="M37 23.1963C37 35.4641 37 47.732 37 59.9998" stroke="#E6E6E6" stroke-width="2" stroke-miterlimit="22.9256"/>
<path d="M40.3535 39.8535C40.3535 41.015 40.3535 42.1764 40.3535 43.3379" stroke="#E6E6E6" stroke-width="2" stroke-miterlimit="22.9256"/>
<path d="M33.6484 39.8535C33.6484 41.015 33.6484 42.1764 33.6484 43.3379" stroke="#E6E6E6" stroke-width="2" stroke-miterlimit="22.9256"/>
</svg>
