<svg width="52" height="72" viewBox="0 0 52 72" fill="none" xmlns="http://www.w3.org/2000/svg">
<path d="M42.5413 1H9.4587C4.78709 1 1 7.19927 1 14.8465V57.1535C1 64.8007 4.78709 71 9.4587 71H42.5413C47.2129 71 51 64.8007 51 57.1535V14.8465C51 7.19927 47.2129 1 42.5413 1Z" stroke="#E6E6E6" stroke-width="2" stroke-miterlimit="22.9256"/>
<path d="M38.0419 9.44434H13.9715C10.5775 9.44434 7.82617 10.7364 7.82617 12.3302V21.13C7.82617 22.7238 10.5775 24.0158 13.9715 24.0158H38.0419C41.4359 24.0158 44.1872 22.7238 44.1872 21.13V12.3302C44.1872 10.7364 41.4359 9.44434 38.0419 9.44434Z" stroke="#E6E6E6" stroke-width="2" stroke-miterlimit="22.9256"/>
<path d="M28.973 30.8677H23.0264C22.1877 30.8677 21.5078 31.5105 21.5078 32.3035V36.7105C21.5078 37.5035 22.1877 38.1463 23.0264 38.1463H28.973C29.8117 38.1463 30.4916 37.5035 30.4916 36.7105V32.3035C30.4916 31.5105 29.8117 30.8677 28.973 30.8677Z" stroke="#E6E6E6" stroke-width="2" stroke-miterlimit="22.9256"/>
<path d="M14.9223 30.8677H8.97562C8.13693 30.8677 7.45703 31.5105 7.45703 32.3035V36.7105C7.45703 37.5035 8.13693 38.1463 8.97562 38.1463H14.9223C15.761 38.1463 16.4409 37.5035 16.4409 36.7105V32.3035C16.4409 31.5105 15.761 30.8677 14.9223 30.8677Z" stroke="#E6E6E6" stroke-width="2" stroke-miterlimit="22.9256"/>
<path d="M43.0238 30.8677H37.0772C36.2385 30.8677 35.5586 31.5105 35.5586 32.3035V36.7105C35.5586 37.5035 36.2385 38.1463 37.0772 38.1463H43.0238C43.8625 38.1463 44.5424 37.5035 44.5424 36.7105V32.3035C44.5424 31.5105 43.8625 30.8677 43.0238 30.8677Z" stroke="#E6E6E6" stroke-width="2" stroke-miterlimit="22.9256"/>
<path d="M28.973 43.293H23.0264C22.1877 43.293 21.5078 43.9358 21.5078 44.7288V49.1358C21.5078 49.9288 22.1877 50.5716 23.0264 50.5716H28.973C29.8117 50.5716 30.4916 49.9288 30.4916 49.1358V44.7288C30.4916 43.9358 29.8117 43.293 28.973 43.293Z" stroke="#E6E6E6" stroke-width="2" stroke-miterlimit="22.9256"/>
<path d="M14.9223 43.293H8.97562C8.13693 43.293 7.45703 43.9358 7.45703 44.7288V49.1358C7.45703 49.9288 8.13693 50.5716 8.97562 50.5716H14.9223C15.761 50.5716 16.4409 49.9288 16.4409 49.1358V44.7288C16.4409 43.9358 15.761 43.293 14.9223 43.293Z" stroke="#E6E6E6" stroke-width="2" stroke-miterlimit="22.9256"/>
<path d="M43.0238 43.293H37.0772C36.2385 43.293 35.5586 43.9358 35.5586 44.7288V49.1358C35.5586 49.9288 36.2385 50.5716 37.0772 50.5716H43.0238C43.8625 50.5716 44.5424 49.9288 44.5424 49.1358V44.7288C44.5424 43.9358 43.8625 43.293 43.0238 43.293Z" stroke="#E6E6E6" stroke-width="2" stroke-miterlimit="22.9256"/>
<path d="M28.973 55.7031H23.0264C22.1877 55.7031 21.5078 56.346 21.5078 57.1389V61.5459C21.5078 62.3389 22.1877 62.9818 23.0264 62.9818H28.973C29.8117 62.9818 30.4916 62.3389 30.4916 61.5459V57.1389C30.4916 56.346 29.8117 55.7031 28.973 55.7031Z" stroke="#E6E6E6" stroke-width="2" stroke-miterlimit="22.9256"/>
<path d="M14.9223 55.7031H8.97562C8.13693 55.7031 7.45703 56.346 7.45703 57.1389V61.5459C7.45703 62.3389 8.13693 62.9818 8.97562 62.9818H14.9223C15.761 62.9818 16.4409 62.3389 16.4409 61.5459V57.1389C16.4409 56.346 15.761 55.7031 14.9223 55.7031Z" stroke="#E6E6E6" stroke-width="2" stroke-miterlimit="22.9256"/>
<path d="M43.0238 55.7031H37.0772C36.2385 55.7031 35.5586 56.346 35.5586 57.1389V61.5459C35.5586 62.3389 36.2385 62.9818 37.0772 62.9818H43.0238C43.8625 62.9818 44.5424 62.3389 44.5424 61.5459V57.1389C44.5424 56.346 43.8625 55.7031 43.0238 55.7031Z" stroke="#E6E6E6" stroke-width="2" stroke-miterlimit="22.9256"/>
</svg>
