<svg width="70" height="72" viewBox="0 0 70 72" fill="none" xmlns="http://www.w3.org/2000/svg">
<path fill-rule="evenodd" clip-rule="evenodd" d="M18.9259 44.3563H51.0772C54.5652 44.3563 58.3459 41.3725 57.4224 38.0043L49.0017 7.35197C48.0783 3.98378 46.1491 1 42.6565 1H27.3466C23.8585 1 21.9294 3.98378 21.0014 7.35197L12.5807 38.0043C11.6572 41.3725 15.4333 44.3563 18.9259 44.3563V44.3563Z" stroke="#E6E6E6" stroke-width="2" stroke-miterlimit="22.9256"/>
<path d="M42.7757 9.18701H27.228C25.6955 9.18701 24.4531 10.4307 24.4531 11.9649V13.649C24.4531 15.1831 25.6955 16.4268 27.228 16.4268H42.7757C44.3082 16.4268 45.5505 15.1831 45.5505 13.649V11.9649C45.5505 10.4307 44.3082 9.18701 42.7757 9.18701Z" stroke="#E6E6E6" stroke-width="2" stroke-miterlimit="22.9256"/>
<path d="M20.9826 38.3843C22.1692 38.3843 23.1312 37.4213 23.1312 36.2334C23.1312 35.0455 22.1692 34.0825 20.9826 34.0825C19.7959 34.0825 18.834 35.0455 18.834 36.2334C18.834 37.4213 19.7959 38.3843 20.9826 38.3843Z" stroke="#E6E6E6" stroke-width="2" stroke-miterlimit="22.9256"/>
<path d="M49.0197 38.3843C50.2063 38.3843 51.1683 37.4213 51.1683 36.2334C51.1683 35.0455 50.2063 34.0825 49.0197 34.0825C47.8331 34.0825 46.8711 35.0455 46.8711 36.2334C46.8711 37.4213 47.8331 38.3843 49.0197 38.3843Z" stroke="#E6E6E6" stroke-width="2" stroke-miterlimit="22.9256"/>
<path d="M35.0022 31.6753C37.9385 31.6753 40.3188 29.2925 40.3188 26.3531C40.3188 23.4136 37.9385 21.0308 35.0022 21.0308C32.0659 21.0308 29.6855 23.4136 29.6855 26.3531C29.6855 29.2925 32.0659 31.6753 35.0022 31.6753Z" stroke="#E6E6E6" stroke-width="2" stroke-miterlimit="22.9256"/>
<path fill-rule="evenodd" clip-rule="evenodd" d="M12.6205 54.5566H57.38C57.8966 54.5566 58.0337 55.0692 58.3217 55.4994L60.8909 59.3755C61.1789 59.8057 60.4657 60.3183 59.9492 60.3183H10.0514C9.53479 60.3183 8.82621 59.8103 9.10965 59.3755L11.6788 55.4994C11.9668 55.0692 12.104 54.5566 12.6205 54.5566V54.5566Z" stroke="#E6E6E6" stroke-width="2" stroke-miterlimit="22.9256"/>
<path fill-rule="evenodd" clip-rule="evenodd" d="M4.36093 65.2388H65.7286C66.4372 65.2388 66.7572 65.6598 67.0178 66.1815L68.9515 70.0577C69.2121 70.5794 68.3709 71.0004 67.6623 71.0004H2.34034C1.63176 71.0004 0.781459 70.5748 1.05118 70.0577L3.07178 66.1815C3.34149 65.6644 3.65235 65.2388 4.36093 65.2388V65.2388Z" stroke="#E6E6E6" stroke-width="2" stroke-miterlimit="22.9256"/>
<path d="M20.7133 47.5457L22.4368 44.5527M10.5098 65.2378L13.3487 60.3137L10.5098 65.2378ZM16.6721 54.5566L18.4779 51.4218L16.6721 54.5566Z" stroke="#E6E6E6" stroke-width="2" stroke-miterlimit="22.9256"/>
<path d="M49.2938 47.5457L47.5703 44.5527M59.4973 65.2378L56.6584 60.3137L59.4973 65.2378ZM53.335 54.5566L51.5292 51.4218L53.335 54.5566Z" stroke="#E6E6E6" stroke-width="2" stroke-miterlimit="22.9256"/>
<path fill-rule="evenodd" clip-rule="evenodd" d="M18.4555 47.5459H51.5485C51.9325 47.5459 52.0331 47.8891 52.2433 48.1774L54.1405 50.786C54.3508 51.0743 53.8297 51.4175 53.4457 51.4175H16.5537C16.1697 51.4175 15.6486 51.0743 15.8589 50.786L17.756 48.1774C17.9663 47.8891 18.0669 47.5459 18.4509 47.5459H18.4555Z" stroke="#E6E6E6" stroke-width="2" stroke-miterlimit="22.9256"/>
</svg>
