<svg width="64" height="48" viewBox="0 0 64 48" fill="none" xmlns="http://www.w3.org/2000/svg">
<path fill-rule="evenodd" clip-rule="evenodd" d="M41.1306 33.0725H8.724C7.39889 33.0725 6.3125 34.1547 6.3125 35.4746V40.4876C6.3125 41.8075 7.39889 42.8897 8.724 42.8897H10.5704C10.5704 40.6186 12.4168 38.7794 14.6967 38.7794C16.9767 38.7794 18.8231 40.6186 18.8231 42.8897H24.6935C24.6935 40.6186 26.5398 38.7794 28.8198 38.7794C31.0998 38.7794 32.9461 40.6186 32.9461 42.8897H49.8266C49.8266 40.6186 51.673 38.7794 53.953 38.7794C56.2329 38.7794 58.0793 40.6186 58.0793 42.8897H59.5895C60.9146 42.8897 62.001 41.8075 62.001 40.4876V36.0327V35.4698V27.8024C62.001 27.715 61.9962 27.6228 61.9913 27.5355C62.001 27.4384 62.001 27.3414 62.001 27.2443V20.7173L57.4703 12.9043H48.5308C46.4749 12.9043 44.7942 14.5785 44.7942 16.6264V24.6384H44.2924C42.5483 24.6384 41.1209 26.0602 41.1209 27.7975V33.0628L41.1306 33.0725Z" stroke="#E6E6E6" stroke-width="2" stroke-miterlimit="22.9256"/>
<path d="M14.6967 46.9999C16.9756 46.9999 18.823 45.1597 18.823 42.8896C18.823 40.6195 16.9756 38.7793 14.6967 38.7793C12.4177 38.7793 10.5703 40.6195 10.5703 42.8896C10.5703 45.1597 12.4177 46.9999 14.6967 46.9999Z" stroke="#E6E6E6" stroke-width="2" stroke-miterlimit="22.9256"/>
<path d="M28.8256 46.9999C31.1045 46.9999 32.9519 45.1597 32.9519 42.8896C32.9519 40.6195 31.1045 38.7793 28.8256 38.7793C26.5466 38.7793 24.6992 40.6195 24.6992 42.8896C24.6992 45.1597 26.5466 46.9999 28.8256 46.9999Z" stroke="#E6E6E6" stroke-width="2" stroke-miterlimit="22.9256"/>
<path d="M53.9623 46.9999C56.2412 46.9999 58.0886 45.1597 58.0886 42.8896C58.0886 40.6195 56.2412 38.7793 53.9623 38.7793C51.6834 38.7793 49.8359 40.6195 49.8359 42.8896C49.8359 45.1597 51.6834 46.9999 53.9623 46.9999Z" stroke="#E6E6E6" stroke-width="2" stroke-miterlimit="22.9256"/>
<path d="M13.2246 25.541C13.2246 28.0499 13.2246 30.5588 13.2246 33.0726" stroke="#E6E6E6" stroke-width="2" stroke-miterlimit="22.9256"/>
<path d="M30.791 26.8608C30.791 28.9281 30.791 31.0003 30.791 33.0676" stroke="#E6E6E6" stroke-width="2" stroke-miterlimit="22.9256"/>
<path fill-rule="evenodd" clip-rule="evenodd" d="M25.5547 1.62651C20.644 0.316251 16.8977 1.12667 12.1185 3.4463C11.5875 3.71321 10.9104 4.14025 10.2283 4.70318L5.49789 3.44145L2 16.4469L6.633 17.6844C6.87171 18.4172 7.16401 19.1402 7.48068 19.8487C9.45372 23.663 13.6336 26.3903 18.5443 27.7006C23.455 29.0108 28.1562 28.7245 31.7759 26.4049C32.4969 25.9778 33.1936 25.4974 33.8366 24.949L38.5184 26.201L42.0162 13.1956L37.4856 11.9872C37.1884 11.0603 36.7986 10.2257 36.3845 9.56082C34.4115 5.74653 30.4605 2.94647 25.5499 1.63621L25.5547 1.62651Z" stroke="#E6E6E6" stroke-width="2" stroke-miterlimit="22.9256"/>
</svg>
